<svg id="Layer_2" data-name="Layer 2" xmlns="http://www.w3.org/2000/svg" viewBox="0 0 402 639"><defs><style>.cls-1{fill:#e6abf4;}.cls-2{fill:#f2edad;}.cls-3{fill:#acecef;}.cls-4{font-size:49.81px;fill:#ba5eef;font-family:ComicSansMS-Bold, Comic Sans MS;font-weight:700;}.cls-5{fill:#fff;}</style></defs><title>babyshampoo</title><path class="cls-1" d="M826.47,917A142.81,142.81,0,0,0,831,881.32V557.66c0-74.67-57.43-135.79-127.61-135.79H556.61C486.43,421.93,429,483,429,557.66V881.32A142.81,142.81,0,0,0,433.53,917Z" transform="translate(-429 -278)"/><path class="cls-2" d="M788.33,877A123.27,123.27,0,0,0,792,847.17V576.54C792,514.11,745.57,463,688.83,463H570.17C513.43,463.05,467,514.13,467,576.54V847.17A123.27,123.27,0,0,0,470.67,877Z" transform="translate(-429 -278)"/><rect class="cls-2" x="127" y="26" width="141" height="118"/><ellipse class="cls-2" cx="197.5" cy="21" rx="70.5" ry="21"/><circle class="cls-3" cx="203.5" cy="510.5" r="71.5"/><circle class="cls-3" cx="91.5" cy="438.5" r="28.5"/><circle class="cls-3" cx="222" cy="371" r="18"/><circle class="cls-3" cx="318.5" cy="400.5" r="19.5"/><circle class="cls-3" cx="138" cy="322" r="18"/><text class="cls-4" transform="translate(59.29 268.9) scale(0.84 1)">Baby Shampoo</text><ellipse class="cls-5" cx="527.79" cy="702.41" rx="10.14" ry="4.01" transform="translate(-709.49 80) rotate(-30)"/><ellipse class="cls-5" cx="640.73" cy="740.03" rx="14.53" ry="29.41" transform="translate(-721.27 758.15) rotate(-66.72)"/><ellipse class="cls-5" cx="566.79" cy="598.41" rx="10.14" ry="4.01" transform="translate(-652.27 85.57) rotate(-30)"/><ellipse class="cls-5" cx="650.79" cy="631.41" rx="10.14" ry="4.01" transform="translate(-657.51 131.99) rotate(-30)"/><ellipse class="cls-5" cx="747.79" cy="667.41" rx="10.14" ry="4.01" transform="translate(-662.52 185.31) rotate(-30)"/></svg>