<svg id="Layer_2" data-name="Layer 2" xmlns="http://www.w3.org/2000/svg" viewBox="0 0 402 639"><defs><style>.cls-1{fill:#83e8ed;}.cls-2{fill:#f2edad;}.cls-3{font-size:49.81px;fill:#ff7bac;font-family:ComicSansMS-Bold, Comic Sans MS;font-weight:700;}.cls-4{fill:#fff;}.cls-4,.cls-5{stroke:#a1f7f7;stroke-miterlimit:10;}.cls-5{fill:#dab9ea;}</style></defs><title>babylotion</title><path class="cls-1" d="M826.47,917A142.81,142.81,0,0,0,831,881.32V557.66c0-74.67-57.43-135.79-127.61-135.79H556.61C486.43,421.93,429,483,429,557.66V881.32A142.81,142.81,0,0,0,433.53,917Z" transform="translate(-429 -278)"/><path class="cls-2" d="M788.33,877A123.27,123.27,0,0,0,792,847.17V576.54C792,514.11,745.57,463,688.83,463H570.17C513.43,463.05,467,514.13,467,576.54V847.17A123.27,123.27,0,0,0,470.67,877Z" transform="translate(-429 -278)"/><rect class="cls-2" x="127" y="26" width="141" height="118"/><ellipse class="cls-2" cx="197.5" cy="21" rx="70.5" ry="21"/><text class="cls-3" transform="translate(86.63 268.9) scale(0.84 1)">Baby Lotion</text><g id="middle"><ellipse class="cls-4" cx="204.5" cy="404.5" rx="74.5" ry="61.5"/><polygon class="cls-5" points="224.86 438.15 204.61 425.99 184.47 438.44 188.19 412.33 171.76 393.98 194.31 390 204.28 366.21 214.51 389.87 237.1 393.51 220.86 412.1 224.86 438.15"/></g></svg>