<svg id="Layer_2" data-name="Layer 2" xmlns="http://www.w3.org/2000/svg" viewBox="0 0 691.61 592.23"><defs><style>.cls-1,.cls-3{fill:#f4f4a8;}.cls-1{stroke:aqua;}.cls-1,.cls-5{stroke-miterlimit:10;}.cls-2{fill:none;}.cls-4{fill:#93e0e2;}.cls-5{fill:#dab9ea;stroke:#a1f7f7;}.cls-6{fill:#fff;}</style></defs><title>comb</title><circle class="cls-1" cx="353.24" cy="70.98"/><path class="cls-2" d="M696,518.45" transform="translate(-126.09 -341.65)"/><rect class="cls-3" x="241.22" y="600.08" width="152.59" height="315.72" transform="translate(567.37 -314.44) rotate(49.95)"/><path class="cls-3" d="M809.77,440.31a22.25,22.25,0,0,0-.05-34.1q-5.85-4.9-12-9.54c-117.51-88-281-68.29-365.28,44.13C368,526.77,368.65,642,425.1,730.87a22.2,22.2,0,0,0,33,5Z" transform="translate(-126.09 -341.65)"/><path class="cls-4" d="M249.8,719.08a53.56,53.56,0,0,0-11.4,7.33L145,804.82c-21.55,18.09-25.21,49.56-8.12,69.92l35.74,42.58c17.11,20.35,48.73,22.2,70.27,4.12L336.29,843a53.56,53.56,0,0,0,9.2-10Z" transform="translate(-126.09 -341.65)"/><polygon class="cls-5" points="256.58 397.45 241.5 389.64 226.5 397.64 229.26 380.88 217.03 369.08 233.82 366.54 241.25 351.25 248.88 366.44 265.7 368.79 253.6 380.73 256.58 397.45"/><rect class="cls-6" x="539.6" y="496.22" width="23" height="161" rx="11.5" ry="11.5" transform="translate(-366.37 134.91) rotate(-39.09)"/><rect class="cls-6" x="572.2" y="469.74" width="23" height="161" rx="11.5" ry="11.5" transform="translate(-342.38 149.54) rotate(-39.09)"/><rect class="cls-6" x="476.73" y="547.29" width="23" height="161" rx="11.5" ry="11.5" transform="matrix(0.78, -0.63, 0.63, 0.78, -412.64, 106.7)"/><rect class="cls-6" x="509.33" y="520.81" width="23" height="161" rx="11.5" ry="11.5" transform="translate(-388.65 121.33) rotate(-39.09)"/><rect class="cls-6" x="667.67" y="392.19" width="23" height="161" rx="11.5" ry="11.5" transform="translate(-272.11 192.38) rotate(-39.09)"/><rect class="cls-6" x="700.27" y="365.71" width="23" height="161" rx="11.5" ry="11.5" transform="translate(-248.11 207) rotate(-39.09)"/><rect class="cls-6" x="604.8" y="443.26" width="23" height="161" rx="11.5" ry="11.5" transform="translate(-318.38 164.17) rotate(-39.09)"/><rect class="cls-6" x="637.4" y="416.78" width="23" height="161" rx="11.5" ry="11.5" transform="translate(-294.39 178.79) rotate(-39.09)"/></svg>