<svg id="Layer_2" data-name="Layer 2" xmlns="http://www.w3.org/2000/svg" viewBox="0 0 749.23 656.38"><defs><style>.cls-1{fill:#050500;}.cls-2{fill:#f2aadf;}.cls-3{fill:#fff;}.cls-4{fill:#66b2f7;}</style></defs><title>cryingemotion</title><path class="cls-1" d="M647.82,434.32v38.42c0,9.87-7.09,17.94-15.75,17.94H591.39c-8.66,0-15.75-8.07-15.75-17.94V426.4a19.09,19.09,0,0,1,5.06-13.12C493.9,396.51,403,417.94,328.79,481.51,191.43,599.21,160,819.7,250.23,991.17c2.16.92,4.3,1.93,6.46,2.83,22.27-40.76,51.21-77.45,86.67-107.83a340,340,0,0,1,80.54-51.62A142.88,142.88,0,0,1,455,818.42c1.81-34.33,30.75-61.62,66.19-61.62a66.92,66.92,0,0,1,33.47,8.91,66.92,66.92,0,0,1,33.47-8.91c35.26,0,64.08,27,66.15,61.11a154.61,154.61,0,0,1,26.65,12.83c59.4,24,114.71,65.27,159.67,122.55,6.41-3.87,12.76-8,19.09-12.08,35.77-119.34,19.4-259-54.34-370.64C763.13,506.66,708,460.77,647.82,434.32Z" transform="translate(-169.77 -337.62)"/><path class="cls-2" d="M555.29,801.65c37.53,0,72,6.1,99,16.26-2.07-34.09-30.89-61.11-66.15-61.11a66.92,66.92,0,0,0-33.47,8.91,66.92,66.92,0,0,0-33.47-8.91c-35.44,0-64.38,27.29-66.19,61.62C482.17,807.95,517.14,801.65,555.29,801.65Z" transform="translate(-169.77 -337.62)"/><path class="cls-3" d="M555.29,801.65c-38.16,0-73.12,6.3-100.32,16.77a142.88,142.88,0,0,0-31.07,16.13c-16.09,11.39-25.46,25-25.46,39.61,0,40,70.22,72.51,156.84,72.51s156.84-32.46,156.84-72.51c0-16.29-11.62-31.32-31.23-43.42a154.61,154.61,0,0,0-26.65-12.83C627.26,807.74,592.82,801.65,555.29,801.65Z" transform="translate(-169.77 -337.62)"/><path class="cls-3" d="M575.64,426.4v46.35c0,9.87,7.09,17.94,15.75,17.94h40.69c8.66,0,15.75-8.07,15.75-17.94V426.4c0-9.87-7.09-17.94-15.75-17.94H591.39a14.7,14.7,0,0,0-10.69,4.82A19.09,19.09,0,0,0,575.64,426.4Z" transform="translate(-169.77 -337.62)"/><path class="cls-4" d="M913.57,438.88c-10.81-20.53-66.58-60.3-59.65-37.7,12.83,41.79-16.45,61.77-5.64,82.3s34.19,27.2,52.22,14.88S924.39,459.42,913.57,438.88Z" transform="translate(-169.77 -337.62)"/><path class="cls-4" d="M242,425.57c9.27-21.49-21.36-38.61-11.64-81.48,5.26-23.18-47.41,21.74-56.68,43.23s-1.5,47.47,17.37,58S232.73,447.06,242,425.57Z" transform="translate(-169.77 -337.62)"/></svg>