<svg xmlns="http://www.w3.org/2000/svg" viewBox="0 0 620 708.57"><defs><style>.cls-1{fill:#fafcfc;}.cls-2{fill:#fff;}.cls-3{fill:#dab9ea;}.cls-4{fill:none;}.cls-5{fill:#f4f4a8;}.cls-6{fill:#93e0e2;}.cls-7{fill:#d6b1ef;}.cls-8{fill:#f2ec1c;}</style></defs><title>cup</title><g id="left_foot" data-name="left foot"><rect class="cls-1" width="13" height="84"/><rect class="cls-1" x="40" width="13" height="84"/><g id="milk"><path class="cls-2" d="M533.87,815.73V921.46a53.73,53.73,0,0,0,1.88,14.08H698.89a53.73,53.73,0,0,0,1.88-14.08V815.73Z" transform="translate(-183 -233)"/></g><path class="cls-3" d="M528.18,795.74v-5.65a57.19,57.19,0,0,1,5.72-25C474,780.41,433,811.55,433,847.49c0,34.8,38.45,65.09,95.24,80.88,0-.62-.06-1.23-.06-1.85V905.94c-32.08-13-52.58-32.85-52.58-55.1S496.11,808.73,528.18,795.74Z" transform="translate(-183 -233)"/><path class="cls-3" d="M700.56,764.71a57.22,57.22,0,0,1,5.92,25.37v5.61c32.14,13,52.71,32.87,52.71,55.15S738.62,893,706.48,906v20.54c0,.74,0,1.48-.07,2.22,57.54-15.68,96.6-46.18,96.6-81.25C803,811.24,761.28,779.88,700.56,764.71Z" transform="translate(-183 -233)"/><path class="cls-4" d="M475.6,850.84c0,22.25,20.51,42.1,52.58,55.1V795.74C496.11,808.73,475.6,828.59,475.6,850.84Z" transform="translate(-183 -233)"/><path class="cls-4" d="M759.18,850.84c0-22.28-20.56-42.15-52.71-55.15V906C738.62,893,759.18,873.12,759.18,850.84Z" transform="translate(-183 -233)"/><path class="cls-5" d="M561,715.12H563v22.17a55.73,55.73,0,0,1,7.17-2.48V715.12h2.05v19.17a55.5,55.5,0,0,1,7.17-1.18v-18h2.05V733c1.1-.07,2.2-.11,3.31-.11h2.83V715.12h2.05v17.72h6.15V715.12h2.05v17.72H604V715.12h2.05v17.72h6.15V715.12h2.05v17.72h5.12V715.12h2.05v17.72h7.17V715.12h2.05v17.72h7.17V715.12h2.05v17.72h7.17V715.12h2.05v17.72h.78c1.81,0,3.6.1,5.36.27v-18h2.05v18.23a55.43,55.43,0,0,1,6.15,1.17V715.12h2.05v20a55.68,55.68,0,0,1,6.14,2.18V715.12h2.05V738.2a56.46,56.46,0,0,1,6.13,3.38h2.84A14.33,14.33,0,0,0,697,727.25V725a14.33,14.33,0,0,0-14.33-14.33H552A14.33,14.33,0,0,0,537.66,725v2.24A14.33,14.33,0,0,0,552,741.58h2.87a56.52,56.52,0,0,1,6.11-3.37Zm118.87,0h2.05v23.57h-2.05ZM551.75,738.69V715.12h2.05v23.57Z" transform="translate(-183 -233)"/><path class="cls-5" d="M673.69,738.2v.49h-2.05v-1.41a55.68,55.68,0,0,0-6.14-2.18v3.6h-2.05v-4.16a55.43,55.43,0,0,0-6.15-1.17v5.33h-2.05v-5.58c-1.77-.17-3.55-.27-5.36-.27h-.78v5.84h-2.05v-5.84h-7.17v5.84h-2.05v-5.84h-7.17v5.84H628.6v-5.84h-7.17v5.84h-2.05v-5.84h-5.12v5.84h-2.05v-5.84h-6.15v5.84H604v-5.84h-6.14v5.84h-2.05v-5.84h-6.15v5.84h-2.05v-5.84h-2.83c-1.11,0-2.21,0-3.31.11v5.74h-2.05v-5.57a55.5,55.5,0,0,0-7.17,1.18v4.39h-2.05V734.8a55.73,55.73,0,0,0-7.17,2.48v1.4H561v-.47a56.52,56.52,0,0,0-6.11,3.37h125A56.46,56.46,0,0,0,673.69,738.2Z" transform="translate(-183 -233)"/><rect class="cls-4" x="350.87" y="610.95" width="25.61" height="3.36"/><rect class="cls-4" x="350.87" y="604.22" width="25.61" height="3.36"/><rect class="cls-4" x="350.87" y="629.48" width="25.61" height="3.36"/><rect class="cls-4" x="350.87" y="563.83" width="25.61" height="3.36"/><rect class="cls-4" x="350.87" y="637.04" width="25.61" height="3.36"/><rect class="cls-4" x="350.87" y="589.07" width="25.61" height="3.36"/><rect class="cls-4" x="350.87" y="570.56" width="25.61" height="3.36"/><rect class="cls-4" x="350.87" y="596.65" width="25.61" height="3.36"/><rect class="cls-4" x="350.87" y="617.69" width="31.3" height="7.57"/><rect class="cls-4" x="350.87" y="577.29" width="31.3" height="7.57"/><rect class="cls-4" x="350.87" y="644.61" width="25.61" height="3.36"/><rect class="cls-4" x="350.87" y="651.35" width="25.61" height="3.36"/><rect class="cls-4" x="350.87" y="658.08" width="31.3" height="7.57"/><rect class="cls-4" x="350.87" y="669.87" width="25.61" height="3.36"/><path class="cls-6" d="M706.48,906V795.69q-4.54-1.83-9.37-3.49V763.86c1.16.28,2.3.57,3.45.85a57.65,57.65,0,0,0-20.74-23.13h-125a57.67,57.67,0,0,0-21,23.52c2.84-.73,5.71-1.43,8.63-2.08v6.88h22.63v7.57H542.54v4.21h16.93V785H542.54v4.21h16.93v3.36h-23c-2.85,1-5.63,2-8.32,3.12v110.2c4,1.61,8.14,3.11,12.45,4.5h18.84v3.36H542.54V918h16.93v3.36H542.54v3.36h16.93v3.36H542.54V932q-7.33-1.64-14.3-3.59a57.36,57.36,0,0,0,1.95,13.2H704.47a57.36,57.36,0,0,0,1.94-12.82c-3.05.83-6.14,1.63-9.29,2.38V909.47Q701.95,907.83,706.48,906ZM533.87,796.83h25.61v3.36H533.87Zm0,6.73h25.61v3.36H533.87Zm0,18.51h25.61v3.36H533.87Zm0,7.57h25.61V833H533.87Zm0,7.57h25.61v3.36H533.87Zm0,6.73h25.61v3.36H533.87Zm0,18.53h25.61v3.36H533.87Zm0,7.56h25.61v3.36H533.87Zm0,7.57h25.61V881H533.87Zm0,6.74h25.61v3.36H533.87Zm25.61,21.88H533.87v-3.36h25.61Zm5.7-7.57h-31.3v-7.57h31.3Zm0-40.39h-31.3v-7.57h31.3Zm0-40.41h-31.3v-7.57h31.3Z" transform="translate(-183 -233)"/><rect class="cls-7" x="350.87" y="577.29" width="31.3" height="7.57"/><rect class="cls-7" x="350.87" y="589.07" width="25.61" height="3.36"/><rect class="cls-7" x="350.87" y="610.95" width="25.61" height="3.36"/><rect class="cls-7" x="350.87" y="604.22" width="25.61" height="3.36"/><rect class="cls-7" x="350.87" y="596.65" width="25.61" height="3.36"/><rect class="cls-7" x="359.54" y="536.9" width="22.63" height="7.57"/><rect class="cls-7" x="359.54" y="548.68" width="16.93" height="3.36"/><rect class="cls-7" x="350.87" y="570.56" width="25.61" height="3.36"/><rect class="cls-7" x="350.87" y="563.83" width="25.61" height="3.36"/><path class="cls-7" d="M536.5,792.62h23v-3.36H542.54v1.37C540.49,791.26,538.48,791.93,536.5,792.62Z" transform="translate(-183 -233)"/><rect class="cls-7" x="350.87" y="658.08" width="31.3" height="7.57"/><rect class="cls-7" x="350.87" y="669.87" width="25.61" height="3.36"/><rect class="cls-7" x="359.54" y="691.75" width="16.93" height="3.36"/><rect class="cls-7" x="359.54" y="685.02" width="16.93" height="3.36"/><path class="cls-7" d="M542.54,913.81h16.93v-3.36H540.63l1.91.62Z" transform="translate(-183 -233)"/><rect class="cls-7" x="350.87" y="617.69" width="31.3" height="7.57"/><rect class="cls-7" x="350.87" y="629.48" width="25.61" height="3.36"/><rect class="cls-7" x="350.87" y="651.35" width="25.61" height="3.36"/><rect class="cls-7" x="350.87" y="644.61" width="25.61" height="3.36"/><rect class="cls-7" x="350.87" y="637.04" width="25.61" height="3.36"/><rect class="cls-8" x="368.75" y="482.12" width="2.05" height="23.57"/><rect class="cls-8" x="421" y="482.12" width="2.05" height="17.72"/><rect class="cls-8" x="421" y="499.84" width="2.05" height="5.84"/><rect class="cls-8" x="429.21" y="482.12" width="2.05" height="17.72"/><rect class="cls-8" x="429.21" y="499.84" width="2.05" height="5.84"/><rect class="cls-8" x="412.81" y="482.12" width="2.05" height="17.72"/><rect class="cls-8" x="412.81" y="499.84" width="2.05" height="5.84"/><rect class="cls-8" x="404.61" y="482.12" width="2.05" height="17.72"/><rect class="cls-8" x="404.61" y="499.84" width="2.05" height="5.84"/><path class="cls-8" d="M579.42,715.12v18q1-.1,2.05-.16V715.12Z" transform="translate(-183 -233)"/><path class="cls-8" d="M579.42,738.69h2.05V733q-1,.06-2.05.16Z" transform="translate(-183 -233)"/><path class="cls-8" d="M570.19,715.12V734.8c.68-.18,1.36-.35,2.05-.51V715.12Z" transform="translate(-183 -233)"/><path class="cls-8" d="M570.19,738.69h2.05v-4.39c-.69.16-1.37.32-2.05.51Z" transform="translate(-183 -233)"/><path class="cls-8" d="M561,715.12v23.1c.68-.32,1.36-.64,2.05-.93V715.12Z" transform="translate(-183 -233)"/><path class="cls-8" d="M561,738.69H563v-1.4c-.69.29-1.37.61-2.05.93Z" transform="translate(-183 -233)"/><rect class="cls-8" x="436.38" y="482.12" width="2.05" height="17.72"/><rect class="cls-8" x="436.38" y="499.84" width="2.05" height="5.84"/><path class="cls-8" d="M671.64,715.12v22.15c.69.29,1.37.61,2.05.93V715.12Z" transform="translate(-183 -233)"/><path class="cls-8" d="M671.64,738.69h2.05v-.49c-.68-.32-1.36-.64-2.05-.93Z" transform="translate(-183 -233)"/><rect class="cls-8" x="496.84" y="482.12" width="2.05" height="23.57"/><path class="cls-8" d="M663.45,715.12v19.41c.69.17,1.37.37,2.05.56v-20Z" transform="translate(-183 -233)"/><path class="cls-8" d="M663.45,738.69h2.05v-3.6c-.68-.2-1.36-.39-2.05-.56Z" transform="translate(-183 -233)"/><path class="cls-8" d="M655.24,715.12v18c.69.07,1.37.15,2.05.24V715.12Z" transform="translate(-183 -233)"/><path class="cls-8" d="M655.24,738.69h2.05v-5.33c-.68-.09-1.36-.18-2.05-.24Z" transform="translate(-183 -233)"/><rect class="cls-8" x="464.05" y="482.12" width="2.05" height="17.72"/><rect class="cls-8" x="464.05" y="499.84" width="2.05" height="5.84"/><rect class="cls-8" x="454.83" y="482.12" width="2.05" height="17.72"/><rect class="cls-8" x="454.83" y="499.84" width="2.05" height="5.84"/><rect class="cls-8" x="445.6" y="482.12" width="2.05" height="17.72"/><rect class="cls-8" x="445.6" y="499.84" width="2.05" height="5.84"/><path class="cls-3" d="M542.54,928.11h-8.67v-3.36h8.67v-3.36h-8.67V918h8.67v-4.21h-8.67v-3.36h6.77c-4.31-1.39-8.47-2.89-12.45-4.5v20.59c0,.62,0,1.23.06,1.85q7,1.94,14.3,3.59Z" transform="translate(-183 -233)"/><path class="cls-3" d="M528.18,795.74c2.69-1.09,5.47-2.13,8.32-3.12h-2.64v-3.36h8.67V785h-8.67v-3.36h8.67v-4.21h-8.67V769.9h8.67V763c-2.92.65-5.79,1.36-8.63,2.08a57.19,57.19,0,0,0-5.72,25Z" transform="translate(-183 -233)"/><rect class="cls-3" x="350.87" y="536.9" width="8.67" height="7.57"/><rect class="cls-3" x="350.87" y="548.68" width="8.67" height="3.36"/><path class="cls-3" d="M533.87,792.62h2.64c2-.69,4-1.36,6-2v-1.37h-8.67Z" transform="translate(-183 -233)"/><rect class="cls-3" x="350.87" y="691.75" width="8.67" height="3.36"/><rect class="cls-3" x="350.87" y="685.02" width="8.67" height="3.36"/><path class="cls-3" d="M533.87,913.81h8.67v-2.75l-1.91-.62h-6.77Z" transform="translate(-183 -233)"/><path class="cls-3" d="M706.48,906q-4.54,1.83-9.37,3.49v21.65c3.15-.75,6.24-1.55,9.29-2.38,0-.74.07-1.48.07-2.22Z" transform="translate(-183 -233)"/><path class="cls-3" d="M697.11,792.2q4.83,1.65,9.37,3.49v-5.61a57.22,57.22,0,0,0-5.92-25.37c-1.15-.29-2.29-.58-3.45-.85Z" transform="translate(-183 -233)"/><polygon class="cls-7" points="474.57 481.25 436.99 481.25 448.16 430.47 474.57 414.22 474.57 481.25"/></g></svg>