<svg id="Layer_2" data-name="Layer 2" xmlns="http://www.w3.org/2000/svg" viewBox="0 0 432.44 472.5"><defs><style>.cls-1{fill:#f9f9f9;stroke-width:3px;}.cls-1,.cls-2{stroke:#a1f7f7;stroke-miterlimit:10;}.cls-2{fill:#f4f4a8;}</style></defs><title>diaper</title><path class="cls-1" d="M873,953.49a108.15,108.15,0,0,1,98.5-107.71,216.4,216.4,0,0,0,2.45-32.5c0-2.68-.07-5.35-.16-8h.16V675.47H844.15V616.19H973.94V558.5H544.5v57.69H674.29v59.29H544.5V805.27h.16c-.1,2.66-.16,5.33-.16,8a215.83,215.83,0,0,0,3.76,40.13,108.13,108.13,0,0,1,99.31,143.3A214.86,214.86,0,0,0,879.69,991,107.92,107.92,0,0,1,873,953.49Z" transform="translate(-543 -557)"/><rect class="cls-2" x="1.5" y="59.19" width="129.79" height="59.29"/><rect class="cls-2" x="301.15" y="59.19" width="129.79" height="59.29"/></svg>