<svg xmlns="http://www.w3.org/2000/svg" viewBox="0 0 410.29 626.68"><defs><style>.cls-1{fill:#fafcfc;}.cls-2{fill:#f4f4a8;}.cls-3{fill:#f2ec1c;}.cls-4{fill:#fcb156;}.cls-5{font-size:26.33px;fill:#fcee21;font-family:ComicSansMS-Bold, Comic Sans MS;font-weight:700;}.cls-6{fill:#f96023;}.cls-7{fill:#255608;}</style></defs><title>food</title><g id="left_foot" data-name="left foot"><rect class="cls-1" width="13" height="84"/><rect class="cls-1" x="40" width="13" height="84"/><path class="cls-2" d="M424.52,620.45H427v27.21a68.43,68.43,0,0,1,8.81-3V620.45h2.52V644a68.14,68.14,0,0,1,8.81-1.45V620.45h2.52v21.89c1.35-.08,2.7-.13,4.07-.13h3.47V620.45h2.52v21.76h7.55V620.45h2.52v21.76h7.54V620.45h2.52v21.76h7.55V620.45h2.52v21.76h6.29V620.45h2.52v21.76h8.81V620.45h2.52v21.76h8.81V620.45h2.52v21.76h8.81V620.45h2.52v21.76h1c2.22,0,4.41.12,6.58.33V620.45h2.52v22.39a68.06,68.06,0,0,1,7.55,1.44V620.45h2.52V645a68.36,68.36,0,0,1,7.54,2.68v-27.2h2.52v28.34a69.32,69.32,0,0,1,7.53,4.15h3.48a17.59,17.59,0,0,0,17.59-17.59v-2.75A17.59,17.59,0,0,0,573.92,615H413.49a17.59,17.59,0,0,0-17.59,17.59v2.75a17.59,17.59,0,0,0,17.59,17.59H417a69.4,69.4,0,0,1,7.5-4.13Zm145.94,0H573v28.94h-2.52ZM413.2,649.38V620.45h2.52v28.94Z" transform="translate(-183 -233)"/><path class="cls-2" d="M562.91,648.79v.6h-2.52v-1.74a68.36,68.36,0,0,0-7.54-2.68v4.42h-2.52v-5.11a68.06,68.06,0,0,0-7.55-1.44v6.55h-2.52v-6.85c-2.17-.21-4.36-.33-6.58-.33h-1v7.18H530.2v-7.18H521.4v7.18h-2.52v-7.18h-8.81v7.18h-2.52v-7.18h-8.81v7.18h-2.52v-7.18h-6.29v7.18h-2.52v-7.18h-7.55v7.18h-2.52v-7.18h-7.54v7.18H467.3v-7.18h-7.55v7.18h-2.52v-7.18h-3.47c-1.37,0-2.72.05-4.07.13v7h-2.52v-6.84a68.14,68.14,0,0,0-8.81,1.45v5.39h-2.52v-4.77a68.43,68.43,0,0,0-8.81,3v1.72h-2.52v-.58a69.4,69.4,0,0,0-7.5,4.13H570.44A69.32,69.32,0,0,0,562.91,648.79Z" transform="translate(-183 -233)"/><rect class="cls-3" x="230.2" y="387.45" width="2.52" height="28.94"/><rect class="cls-3" x="294.35" y="387.45" width="2.52" height="21.76"/><rect class="cls-3" x="294.35" y="409.21" width="2.52" height="7.18"/><rect class="cls-3" x="304.43" y="387.45" width="2.52" height="21.76"/><rect class="cls-3" x="304.43" y="409.21" width="2.52" height="7.18"/><rect class="cls-3" x="284.3" y="387.45" width="2.52" height="21.76"/><rect class="cls-3" x="284.3" y="409.21" width="2.52" height="7.18"/><rect class="cls-3" x="274.22" y="387.45" width="2.52" height="21.76"/><rect class="cls-3" x="274.22" y="409.21" width="2.52" height="7.18"/><path class="cls-3" d="M447.17,620.45v22.09q1.25-.12,2.52-.2V620.45Z" transform="translate(-183 -233)"/><path class="cls-3" d="M447.17,649.38h2.52v-7q-1.27.08-2.52.2Z" transform="translate(-183 -233)"/><path class="cls-3" d="M435.84,620.45v24.17c.83-.23,1.67-.43,2.52-.63V620.45Z" transform="translate(-183 -233)"/><path class="cls-3" d="M435.84,649.38h2.52V644c-.84.2-1.69.4-2.52.63Z" transform="translate(-183 -233)"/><path class="cls-3" d="M424.52,620.45V648.8c.83-.39,1.67-.78,2.52-1.14V620.45Z" transform="translate(-183 -233)"/><path class="cls-3" d="M424.52,649.38H427v-1.72c-.85.36-1.69.75-2.52,1.14Z" transform="translate(-183 -233)"/><rect class="cls-3" x="313.23" y="387.45" width="2.52" height="21.76"/><rect class="cls-3" x="313.23" y="409.21" width="2.52" height="7.18"/><path class="cls-3" d="M560.39,620.45v27.2c.85.36,1.69.75,2.52,1.14V620.45Z" transform="translate(-183 -233)"/><path class="cls-3" d="M560.39,649.38h2.52v-.6c-.83-.39-1.67-.78-2.52-1.14Z" transform="translate(-183 -233)"/><rect class="cls-3" x="387.46" y="387.45" width="2.52" height="28.94"/><path class="cls-3" d="M550.33,620.45v23.83c.85.21,1.68.45,2.52.69V620.45Z" transform="translate(-183 -233)"/><path class="cls-3" d="M550.33,649.38h2.52V645c-.83-.24-1.67-.48-2.52-.69Z" transform="translate(-183 -233)"/><path class="cls-3" d="M540.26,620.45v22.09c.84.08,1.68.19,2.52.3V620.45Z" transform="translate(-183 -233)"/><path class="cls-3" d="M540.26,649.38h2.52v-6.55c-.84-.11-1.67-.22-2.52-.3Z" transform="translate(-183 -233)"/><rect class="cls-3" x="347.2" y="387.45" width="2.52" height="21.76"/><rect class="cls-3" x="347.2" y="409.21" width="2.52" height="7.18"/><rect class="cls-3" x="335.88" y="387.45" width="2.52" height="21.76"/><rect class="cls-3" x="335.88" y="409.21" width="2.52" height="7.18"/><rect class="cls-3" x="324.56" y="387.45" width="2.52" height="21.76"/><rect class="cls-3" x="324.56" y="409.21" width="2.52" height="7.18"/><rect class="cls-4" x="209.49" y="419.3" width="200.8" height="207.39" rx="12" ry="12"/><text class="cls-5" transform="translate(243.02 462.11)">CARROTS</text><path class="cls-6" d="M521.55,740.13c-37.1,7.61-65.09,35.89-85.82,66-.81,1.18.53,2.41,1.69,2.2,19.24-3.38,35.24-12.92,50.17-25.16,14.33-11.75,27.21-25.38,36-41.84a1.52,1.52,0,0,0-1.69-2.2c-7.13,2-12.58,6.68-17.74,11.81-6.5,6.46-12.94,13-19.64,19.21a569.59,569.59,0,0,1-43.92,37l1.82.23c-4.94-5.11,12.76-18.65,16-21.7q9.56-8.89,19.5-17.35t20.26-16.46c6.75-5.24,13.51-10.56,21.94-12.7l-1.46-2.51a275.55,275.55,0,0,1-57.29,54.79q-3.86,2.73-7.81,5.33c-1,.66-4.07,3.5-5.15.88-.26-.63,2.8-3.2,3.16-3.56q7.56-7.48,15.44-14.63,16.3-14.79,33.9-28c1.5-1.13.21-3.58-1.51-2.59-9.27,5.3-15.74,14.15-23,21.8q-6,6.33-12.22,12.38-3.29,3.18-6.65,6.29c-2.48,2.29-6.69,7.28-10.16,7.41l1.06,2.56c19.57-18.82,38.72-41.1,63.4-53.27l-2.05-2.05c-13.21,19.53-27.08,39.61-48,51.48l2.26,1.3c-.28-6.63,9.74-10,14.43-12.91a153.71,153.71,0,0,0,14.32-10,151.3,151.3,0,0,0,14.64-13q3-3,5.81-6.24c1.25-1.43,3.73-3.5,4.32-5.45,2.59-8.46-14.63-3.07-17.33-1.87-11.09,4.93-18.65,14.76-25.8,24.16H477c-2.28-4.46,8.36-9.76,11.08-11.69l12.54-8.89a1.53,1.53,0,0,0,.54-2.05c-7.91-12.81-40,33-44.44,39.31l1.69-.69c-4.18-.6,3.71-9.1,5-10.26,2.85-2.56,6.05-4.7,9.11-7a73.59,73.59,0,0,0,14-14.06c5-6.45,9.8-12.92,16.15-18.16A67.84,67.84,0,0,1,525,725.86a1.5,1.5,0,0,0-.8-2.89,43.45,43.45,0,0,0-29.91,26.13c-.5,1.23,1.17,2.36,2.2,1.69a120.5,120.5,0,0,0,29.31-26.38l-2.36-1.82a207.21,207.21,0,0,1-22.26,28.82l2.51.66c-2.75-8.49,8-13,13.27-17.11,3.69-2.89,6.29-6.12,6.72-10.88a1.51,1.51,0,0,0-1.1-1.45c-11.15-3.17-15,9.46-16,17.86-.1.85.77,1.44,1.5,1.5,7.72.63,16.46-2.09,21.36-8.42,3.83-4.93-1.14-10.16-6.55-7.41-3.94,2-7,6.8-9.86,10l-12.5,13.94-25,27.89a1.5,1.5,0,0,0,2.12,2.12l30.64-28.61c5-4.66,10.05-9.24,15-14,3.12-3,5.83-6.09,5.76-10.64a1.51,1.51,0,0,0-1.9-1.45A17.93,17.93,0,0,0,516.32,736c-.72,1.79,2.18,2.57,2.89.8a14.64,14.64,0,0,1,8.68-8.46l-1.9-1.45c.09,5.78-6.75,10.26-10.58,13.84l-13.54,12.64L475.51,778l2.12,2.12,30.93-34.49,7.24-8.07,3.95-4.4q.91-1,1.85-2,1.85-2.51,5.31.85c-.84,2.66-6.77,5.16-9.09,6a23.61,23.61,0,0,1-9.74,1.08l1.5,1.5c.77-6.36,3.12-17.54,12.17-15l-1.1-1.45c-1.12,12.32-24.71,13.88-19.88,28.78a1.51,1.51,0,0,0,2.51.66A211.63,211.63,0,0,0,526,724.11c.9-1.41-1.28-3.16-2.36-1.82a118.05,118.05,0,0,1-28.71,25.92l2.2,1.69a40.37,40.37,0,0,1,27.82-24l-.8-2.89a71.51,71.51,0,0,0-24.27,13.38c-8.09,6.85-13.44,15.86-20.49,23.64-6.29,7-15,11.08-21.19,18.13-2.26,2.59-7.22,11.23-.59,12.19a1.6,1.6,0,0,0,1.69-.69,251.68,251.68,0,0,1,18-22.94c2.15-2.43,18-21.66,21.25-16.37l.54-2.05c-6.83,4.84-13.88,9.47-20.53,14.56-3.28,2.5-6.3,6-4.17,10.12a1.52,1.52,0,0,0,2.59,0c6.53-8.57,13.4-17.53,23.28-22.41a30.59,30.59,0,0,1,7.85-2.66c.64-.12,4.54-1.14,5.09-.45,1,1.25-.41,2.85-1,3.76-2.85,4.33-7.45,8.17-11.21,11.7a149.08,149.08,0,0,1-25.53,19.24c-5.64,3.37-14.79,6.68-14.45,14.62a1.52,1.52,0,0,0,2.26,1.3c21.42-12.12,35.63-32.61,49.13-52.56.91-1.34-.81-2.66-2.05-2.05-24.94,12.3-44.25,34.75-64,53.74a1.52,1.52,0,0,0,1.06,2.56c4.83-.19,8.27-4.61,11.61-7.67q7.42-6.81,14.47-14c8.72-8.89,16.47-20.35,27.42-26.61l-1.51-2.59a497,497,0,0,0-38.59,32.26q-4.75,4.4-9.37,8.93c-2.11,2.07-5.1,4.24-6.08,7.18-1.24,3.73,1.66,6.19,5.31,4.84,3.31-1.23,6.51-4.05,9.4-6q5-3.42,9.75-7.05,9.06-6.86,17.55-14.44a278.37,278.37,0,0,0,33.42-35.74,1.51,1.51,0,0,0-1.46-2.51c-8.93,2.26-16.12,7.92-23.27,13.47Q482.8,760,470.15,771.06q-12.29,10.73-24,22.13c-3.93,3.84-11.32,10.7-5.91,16.29a1.51,1.51,0,0,0,1.82.23Q463,793.8,482.51,776.07q9.64-8.81,18.86-18.06c6.31-6.33,12.4-13.45,21.31-16l-1.69-2.2c-8.39,15.75-20.59,28.82-34.23,40.18-14.88,12.39-30.81,22.05-50.12,25.44l1.69,2.2c20.31-29.51,47.69-57.19,84-64.64,1.89-.39,1.09-3.28-.8-2.89Z" transform="translate(-183 -233)"/><path class="cls-6" d="M537.15,742.92c-26.67,26.9-34.36,65.91-34.91,102.5a1.52,1.52,0,0,0,2.56,1.06c13.54-12.91,21.6-28.89,27.18-46.56,5.81-18.4,9.33-37.62,7.45-56.95-.11-1.16-1.64-2.15-2.56-1.06-4.83,5.66-6.81,12.48-8.27,19.64-1.87,9.16-3.66,18.32-5.83,27.42q-6.63,27.86-16.06,54.93l1.85-1c-7-1.35-.49-19.69.42-23.6q3.14-13.51,6.91-26.85,3.64-12.88,7.87-25.59c2.8-8.4,5.46-17.06,11.51-23.75L532.7,742a275.84,275.84,0,0,1-18,79c-.92,2.36-2.26,8.56-4.12,9.93q-.35,2-1.5.22-2.14-1-.52-3.44c.3-1.56.64-3.1,1-4.65q2.09-9.76,4.57-19.43,5.22-20.26,12.16-40a1.51,1.51,0,0,0-2.74-1.16c-5,10-5.4,21.4-7.28,32.2q-1.55,8.94-3.53,17.8-1,4.66-2.2,9.3c-.69,2.77-1.09,7.68-3.7,9.42l2.2,1.69c5.86-26.5,9.43-55.68,23.22-79.49l-2.8-.76c-.17,23.56-.55,48-11.4,69.47h2.59c-4.1-5.75,2.89-14.58,5.33-20a153.53,153.53,0,0,0,6.33-16.42,150.47,150.47,0,0,0,4.66-18.44q.78-4.21,1.33-8.45c.25-1.94,1.23-5.08.14-7-3.77-6.55-13.65,6.49-15.45,9.44-6.19,10.14-7,22.27-7.77,33.83l2.26-1.3c-4.32-2.31,1.36-12.58,2.4-15.29l5.86-15.24a1.5,1.5,0,0,0-.69-1.69c-9.66-4.22-11,15.22-11.88,20.34q-1.79,10.66-2.66,21.46-.43,5.29-.62,10.59-.06,1.45-.09,2.89a2.75,2.75,0,0,1-1.51-2.91c-.42-2.05.21-4.5.64-6.47,1.38-6.26,4.32-12,5.93-18.23,1.69-6.48,1.9-13.22,2.37-19.87,1-14.78,5.5-28.35,14.76-40.05,1.17-1.48-.79-3.58-2.12-2.12a43.53,43.53,0,0,0-10.51,38.34,1.51,1.51,0,0,0,2.74.36,121.75,121.75,0,0,0,9.86-38.6h-3a207.67,207.67,0,0,1-2.53,36.31l2.2-.9c-6.06-4.68-1.28-13.6.87-19,2-5.09,3.19-10.11.53-15.16a1.52,1.52,0,0,0-1.69-.69c-11,3.42-7.31,16.13-3.51,23.67a1.52,1.52,0,0,0,2.05.54c6.72-3.72,12.24-10.5,13.13-18.34.68-6-5.55-8.79-9.13-3.65-2.57,3.69-2.39,10-3,14.25l-2.68,18.54-5.36,37.07c-.27,1.85,2.44,2.73,2.89.8l9.65-40.8c1.57-6.64,3.25-13.26,4.71-19.93.92-4.2,1.54-8.34-1-12.07a1.52,1.52,0,0,0-2.59,0,17.84,17.84,0,0,0-3,14.46c.38,1.89,3.27,1.09,2.89-.8A15,15,0,0,1,536,729.45H533.4c3.35,4.86.16,12.16-1.06,17.35l-4.26,18-8.3,35.11,2.89.8,6.77-46.83,1.69-11.71c.28-1.95.51-3.91.85-5.85l.25-1.54q.13-3.6,4.88-2.57c1,2.2-2.13,7.62-3.27,9.41a22.94,22.94,0,0,1-8.53,7.84l2.05.54c-2.81-5.58-7.19-16.5,1.72-19.26l-1.69-.69c5.76,10.94-12.81,25.56-.32,35.21a1.5,1.5,0,0,0,2.2-.9,212.25,212.25,0,0,0,2.64-37.11,1.5,1.5,0,0,0-3,0,117.23,117.23,0,0,1-9.45,37.09l2.74.36a40.36,40.36,0,0,1,9.74-35.42l-2.12-2.12a71.74,71.74,0,0,0-12.36,23c-3.21,10.18-2.92,20.64-4.24,31.12-1.23,9.81-6.41,18.46-7.75,28.18-.55,4,.11,13.39,6.5,10.59a1.48,1.48,0,0,0,.74-1.3,255.22,255.22,0,0,1,2-26.93c.41-3.19,3.34-30.09,8.83-27.69l-.69-1.69c-3,7.9-6.62,15.79-9.15,23.86-1.13,3.62-1.56,8,2.27,10.05a1.52,1.52,0,0,0,2.26-1.3c.68-10.79,1.4-22.11,7-31.67,1.07-1.83,8.14-12.16,10.61-9.15.32.39-.34,3.06-.4,3.6-.24,2-.54,3.92-.87,5.88q-.67,4-1.56,8a149.55,149.55,0,0,1-10.35,30.47c-2.87,6.17-9.38,14.62-4.57,21.36a1.52,1.52,0,0,0,2.59,0c11.11-22,11.64-46.86,11.81-71a1.51,1.51,0,0,0-2.8-.76C515.68,775.91,512,805.23,506.1,832c-.26,1.19,1.05,2.47,2.2,1.69,3.66-2.45,4.08-7.24,5.08-11.22q2.44-9.73,4.35-19.58c2.47-12.71,2.53-27.27,8.36-39l-2.74-1.16A493.22,493.22,0,0,0,508.92,812q-1.53,6.48-2.89,13c-.5,2.4-1.55,5.57-.69,8.05,1.07,3.09,4.23,3.94,6.53,1.47,1.83-2,2.61-5.14,3.63-7.6q2.49-6,4.69-12.12,4.25-11.79,7.4-23.94A281.06,281.06,0,0,0,535.7,742a1.51,1.51,0,0,0-2.56-1.06c-6.21,6.87-9.09,15.54-12,24.17Q515.55,781.88,511,799c-3,11.07-5.74,22.24-7.95,33.49-.92,4.68-1.32,12.12,4.74,13.28a1.55,1.55,0,0,0,1.85-1q8.75-25.25,15.17-51.22,3.18-13,5.75-26.09c1.61-8.2,2.87-16.78,8.48-23.35L536.43,743c1.8,18.46-1.38,36.75-6.79,54.38-5.49,17.86-13.29,34-27,47l2.56,1.06c.54-35.79,7.93-74.05,34-100.38a1.5,1.5,0,0,0-2.12-2.12Z" transform="translate(-183 -233)"/><path class="cls-6" d="M207.31,844.72a1.5,1.5,0,0,0,0-3,1.5,1.5,0,0,0,0,3Z" transform="translate(-183 -233)"/><path class="cls-6" d="M447,797a198.28,198.28,0,0,1-24.23,20.55c-.78.56,0,1.86.76,1.3a200.7,200.7,0,0,0,24.54-20.78A.75.75,0,0,0,447,797Z" transform="translate(-183 -233)"/><path class="cls-6" d="M440.18,807.63c-4.11-.42-5.95,3.06-8.74,5.35-1.87,1.53-7.61.91-7.13,4.61.12.94,1.63,1,1.5,0-.1-.78,5.43-2.56,6.36-3.29,2.53-2,4.3-5.55,8-5.17,1,.1,1-1.4,0-1.5Z" transform="translate(-183 -233)"/><path class="cls-6" d="M440,808.38l-10.3,2.32c-.94.21-.54,1.66.4,1.45l10.3-2.32c.94-.21.54-1.66-.4-1.45Z" transform="translate(-183 -233)"/><path class="cls-6" d="M434.51,804.69l-11,11.32c-.67.69.39,1.76,1.06,1.06l11-11.32c.67-.69-.39-1.76-1.06-1.06Z" transform="translate(-183 -233)"/><path class="cls-6" d="M503.68,831.1l.06,10.62a.76.76,0,0,0,1.28.53,15.65,15.65,0,0,0,3.27-5.29.75.75,0,0,0-.34-.85,4,4,0,0,1-2.23-1.8l-.33,1.25,3.31-1L508,833.3c-4.33,4.66-5.6,11.95-7.57,17.82a.76.76,0,0,0,1.1.85,26.31,26.31,0,0,0,13.45-19.59c.13-.94-1.32-1.35-1.45-.4a25,25,0,0,1-12.76,18.69l1.1.85c1.86-5.54,3.13-12.79,7.18-17.16a.76.76,0,0,0-.73-1.25l-3.31,1a.76.76,0,0,0-.33,1.25,20,20,0,0,1,1.6,1.59c.41,1.46-1.54,3.42-2.29,4.22l1.28.53-.06-10.62a.75.75,0,0,0-1.5,0Z" transform="translate(-183 -233)"/><path class="cls-7" d="M525.34,719.83c5.52,12.64,21.68,17.31,25.52,30.8l2.74-1.16c-4.77-6.41-7.13-13.2-10.58-20.28-2.82-5.8-8.76-9-14.57-11.26-12.74-4.91-27.73-2.76-36.55,8.27a1.52,1.52,0,0,0,1.06,2.56c14.23,1.19,29.21-1.79,43.37-3.18a1.52,1.52,0,0,0,.76-2.8c-4.18-3.15-9.06-4-14.17-4.36-6.78-.54-13.58-.86-20.36-1.29-1.43-.09-2.12,2.18-.76,2.8,8,3.63,16.49,4.19,25.19,3.62,4.59-.3,9.15-.87,13.73-1.28,3.2-.29,13.55-2.41,15.59,1l.9-2.2a103.88,103.88,0,0,1-27.38.53,1.51,1.51,0,0,0-1.06,2.56l6.1,5.62,1.82-2.36A41.45,41.45,0,0,0,492.28,726c-1.2.71-.79,3,.76,2.8,8.37-.86,16.54-.54,24.92-.42,5.58.07,10.79-.69,15.21-4.29a1.51,1.51,0,0,0,.23-1.82,91,91,0,0,0-12.73-16.47,1.51,1.51,0,0,0-2.51,1.46,26.69,26.69,0,0,0,9.28,15.65,1.54,1.54,0,0,0,1.82.23,41.37,41.37,0,0,1,16.17-7.2,1.51,1.51,0,0,0,.36-2.74,24.41,24.41,0,0,0-24.63,2.28,1.5,1.5,0,0,0,1.51,2.59l7.95-4-1.82-2.36-7,7.42a1.52,1.52,0,0,0,0,2.12,9.38,9.38,0,0,0,5,2.58l-1-1.85A87.58,87.58,0,0,1,510.46,754c-.65.86.11,1.88.9,2.2,4.69,1.89,6.24-4.66,7.38-7.73a51.43,51.43,0,0,1,14-20.21l-2.51-1.46a25.32,25.32,0,0,0,5.9,22.83c1.06,1.19,2.8-.09,2.51-1.46-1-4.84-2.14-9.67-3.36-14.46-.93-3.67-1.42-8.81-4-11.77-3.95-4.51-10.76-1.66-15.27.23a84.44,84.44,0,0,0-35.81,28.7c-1.13,1.57,1.47,3.07,2.59,1.51a81.5,81.5,0,0,1,28.62-24.78,67.9,67.9,0,0,1,9.11-4c1.42-.49,3.39-1.32,4.86-1.07,3.35.57,4.54,2.82,5.38,5.69,2,6.81,3.52,13.81,5,20.75l2.51-1.46a22.14,22.14,0,0,1-5.13-19.91,1.51,1.51,0,0,0-2.51-1.46A55.4,55.4,0,0,0,520.6,738c-.9,1.44-7.07,15.87-8.45,15.32l.9,2.2a89.65,89.65,0,0,0,15.54-32.84,1.52,1.52,0,0,0-1-1.85,5.54,5.54,0,0,1-3.65-1.81v2.12l7-7.42a1.51,1.51,0,0,0-1.82-2.36l-7.95,4,1.51,2.59a21.4,21.4,0,0,1,21.61-2.28l.36-2.74a43.23,43.23,0,0,0-16.88,7.51l1.82.23a24.25,24.25,0,0,1-8.51-14.32l-2.51,1.46a87.58,87.58,0,0,1,12.26,15.86l.23-1.82c-5,4-11.52,3.52-17.52,3.25a139.11,139.11,0,0,0-20.49.59l.76,2.8A38.47,38.47,0,0,1,535.17,730c1.4,1,3.06-1.21,1.82-2.36l-6.1-5.62-1.06,2.56a106.87,106.87,0,0,0,28.18-.64,1.51,1.51,0,0,0,.9-2.2c-1.41-2.34-3.58-2.89-6.22-3-5.39-.32-10.92.46-16.27,1-11.12,1.13-22.6,2.39-33.1-2.35l-.76,2.8,16.89,1.06c5.7.36,11.4.61,16.13,4.18l.76-2.8c-14.16,1.39-29.14,4.37-43.37,3.18l1.06,2.56c8.9-11.12,24-12.22,36.3-6.33a26.76,26.76,0,0,1,7.28,4.66c2.75,2.71,3.68,6.34,5.1,9.81A66.68,66.68,0,0,0,551,751c1,1.28,3.24.6,2.74-1.16-4-14-20.18-18.59-25.82-31.51-.77-1.76-3.36-.24-2.59,1.51Z" transform="translate(-183 -233)"/><path class="cls-7" d="M533.72,715.79l-3.18-.74,1,1.85c.1-.39-.07,0,.07-.14s0,0-.08,0a1.55,1.55,0,0,0,1.5-1.5c0-.73-.69-1.61-1.5-1.5a3.23,3.23,0,0,0-2.88,2.36,1.52,1.52,0,0,0,1,1.85l3.18.74a1.5,1.5,0,1,0,.8-2.89Z" transform="translate(-183 -233)"/></g></svg>