<svg id="Layer_2" data-name="Layer 2" xmlns="http://www.w3.org/2000/svg" viewBox="0 0 371 388"><defs><style>.cls-1{fill:#dab9ea;}.cls-1,.cls-2{stroke:#a1f7f7;stroke-miterlimit:10;}.cls-2{fill:#f4f4a8;}</style></defs><title>onesie</title><path class="cls-1" d="M849.5,467.5h-116c0,17.67-24.62,32-55,32s-55-14.33-55-32H551.4a11.93,11.93,0,0,0-7.9-3h-40a12,12,0,0,0-12,12v52a12,12,0,0,0,12,12h40c.34,0,.67,0,1-.05V712.5h.1c-.06,1.66-.1,3.33-.1,5a134.69,134.69,0,0,0,2.35,25,67.48,67.48,0,0,1,62,89.43,134.08,134.08,0,0,0,144.86-3.55A67.52,67.52,0,0,1,811,737.78a135,135,0,0,0,1.53-20.28c0-1.67,0-3.34-.1-5h.1v-169h37a12,12,0,0,0,12-12v-52A12,12,0,0,0,849.5,467.5Z" transform="translate(-491 -464)"/><g id="middle"><ellipse class="cls-2" cx="185.5" cy="122.5" rx="55.5" ry="39.5"/><polygon class="cls-1" points="200.67 144.11 185.58 136.3 170.58 144.3 173.35 127.53 161.11 115.74 177.91 113.19 185.34 97.91 192.96 113.1 209.79 115.44 197.69 127.38 200.67 144.11"/></g></svg>