<svg id="left_foot" data-name="left foot" xmlns="http://www.w3.org/2000/svg" viewBox="0 0 508.5 508"><defs><style>.cls-1{fill:#f4f4a8;}.cls-2{fill:#89dfe5;}.cls-3{fill:#dab9ea;}</style></defs><title>pillow</title><path class="cls-1" d="M861,859l-280-9c-64.92,0-101-35-110-91V450c8-47,24.08-96,89-96l294-3c64.92,0,130.44,30.12,125.21,84L963.77,739C984,813,925.92,859,861,859Z" transform="translate(-471 -351)"/><path class="cls-2" d="M826.16,369H604.26c-64.92,0-118,53.12-118,118V724c0,64.92,53.12,118,118,118h221.9c64.92,0,118-53.12,118-118V487C944.2,422.12,891.08,369,826.16,369Zm-265,399.3-4.95-4.95L660.85,658.7l4.95,4.95Zm99.7-223L556.2,440.65l4.95-4.95L665.8,540.35ZM670,605.5c0-21.82,24.85-39.5,55.5-39.5S781,583.68,781,605.5,756.15,645,725.5,645,670,627.32,670,605.5ZM865.85,775.3,761.2,670.65l4.95-4.95L870.8,770.35ZM781.86,544l-4.42-5.43L892.14,445l4.42,5.43Z" transform="translate(-471 -351)"/><rect class="cls-3" x="821.5" y="641.5" width="7" height="148" transform="translate(-735.3 441.93) rotate(-45)"/><rect class="cls-3" x="546" y="705" width="148" height="7" transform="translate(-790.39 294.92) rotate(-45)"/><rect class="cls-3" x="772" y="486" width="148" height="7" transform="translate(-590.01 293.66) rotate(-39.19)"/><rect class="cls-3" x="616.5" y="411.5" width="7" height="148" transform="translate(-632.71 229.61) rotate(-45)"/><path class="cls-1" d="M790,600.5c0-21.82-24.85-39.5-55.5-39.5S679,578.68,679,600.5,703.85,640,734.5,640,790,622.32,790,600.5Zm-40.33,21.61-15.09-7.81-15,8,2.77-16.77-12.24-11.79,16.8-2.55,7.43-15.28L742,591.1l16.83,2.34-12.1,11.94Z" transform="translate(-471 -351)"/><polygon class="cls-3" points="270.96 240.1 263.34 224.91 255.91 240.19 239.11 242.74 251.35 254.53 248.58 271.3 263.58 263.3 278.67 271.11 275.69 254.38 287.79 242.44 270.96 240.1"/></svg>