<svg id="Layer_2" data-name="Layer 2" xmlns="http://www.w3.org/2000/svg" viewBox="0 0 780.14 693.17"><defs><style>.cls-1{fill:#fff;}.cls-2{fill:#ea98d7;}</style></defs><title>smilingemotion</title><path d="M909.66,265.13a30.26,30.26,0,0,1,3.93,30.31c-.75,1.76,1.84,3.29,2.59,1.51a33.2,33.2,0,0,0-3.93-33.34c-1.15-1.52-3.76,0-2.59,1.51Z" transform="translate(-138.82 -141)"/><path d="M165,358.76c-15.45,2.14-27.14,16.64-26.09,32.17.11,1.57,2.69,2.18,2.95.4l1.29-8.91c.27-1.89-2.62-2.7-2.89-.8l-1.29,8.91,2.95.4a28,28,0,0,1,23.89-29.28c1.9-.26,1.09-3.15-.8-2.89Z" transform="translate(-138.82 -141)"/><ellipse cx="422.68" cy="383" rx="323.5" ry="307"/><rect class="cls-1" x="579" y="370" width="86" height="99" rx="12" ry="12" transform="translate(-4.22 -291.85) rotate(15.49)"/><path class="cls-2" d="M464.56,809.5C462,793.77,548.79,757.75,579,768c.5.17,12.18,5.57,18,5,3-.3,5.81-6.33,7-7a6.44,6.44,0,0,0,3-3c37-27,121.82-11,128.81,2.81,10.27,20.31-54.11,50.84-129,62.9S468.22,832.18,464.56,809.5Z" transform="translate(-138.82 -141)"/><ellipse class="cls-1" cx="408.18" cy="198" rx="276" ry="198"/><rect class="cls-1" x="637" y="512" width="76" height="76" rx="12" ry="12" transform="translate(-285.26 120.28) rotate(-19.81)"/></svg>