<svg id="Layer_2" data-name="Layer 2" xmlns="http://www.w3.org/2000/svg" viewBox="0 0 634.37 744.07"><defs><style>.cls-1{fill:#fff;}.cls-1,.cls-2{stroke:#3fa9f5;stroke-miterlimit:10;}.cls-2{fill:#82e9f4;}</style></defs><title>socks</title><ellipse class="cls-1" cx="674.79" cy="616.09" rx="60.59" ry="120.83" transform="translate(-594.71 445.6) rotate(-45)"/><path class="cls-2" d="M871,684.5c0-51,45.75-93.41,106.28-102.63-34-22.44-83.43-40.07-139.94-47.69a419.91,419.91,0,0,0,3.16-51.67,405.94,405.94,0,0,0-9-86.09V212.5h-251v289h.42q.74,16.72,2.74,32.72C634,523.24,695.22,567,725.75,638.6c11.11,26.07,16.74,52.51,17.36,77a428.29,428.29,0,0,0,63.53,12.24A421.14,421.14,0,0,0,884,729.91,87.13,87.13,0,0,1,871,684.5Z" transform="translate(-356.7 -212)"/><ellipse class="cls-1" cx="894.44" cy="653.63" rx="109.53" ry="63.78" transform="translate(-570.08 441.59) rotate(-36.16)"/><ellipse class="cls-1" cx="436.46" cy="788.9" rx="60.59" ry="120.83" transform="translate(-686.56 101.91) rotate(-29.25)"/><path class="cls-2" d="M606.75,908c13.83-49.06,69.38-77.49,130.15-69.94-26.63-30.82-69.42-61.21-121.75-83.88a419.91,419.91,0,0,0,17.06-48.88,405.94,405.94,0,0,0,14.7-85.3l49.91-177L455.24,374.86,376.81,653l.41.12q-3.82,16.29-6.24,32.24c51.45,3.1,98.47,61.83,108.42,139,3.62,28.11,1.87,55.08-4.19,78.81a428.29,428.29,0,0,0,57.82,29,421.14,421.14,0,0,0,73.89,23A87.13,87.13,0,0,1,606.75,908Z" transform="translate(-356.7 -212)"/><ellipse class="cls-1" cx="637.69" cy="884.63" rx="109.53" ry="63.78" transform="translate(-625.17 65.92) rotate(-20.41)"/></svg>