<svg id="Layer_1" data-name="Layer 1" xmlns="http://www.w3.org/2000/svg" viewBox="0 0 404.9 364.87"><defs><style>.cls-1{fill:#ea1818;}.cls-2{fill:#59d3ef;}.cls-3{fill:none;stroke:#000;stroke-miterlimit:10;stroke-width:4px;}.cls-4{fill:#fcfc95;}</style></defs><title>toytruck</title><g id="Car_body" data-name="Car body"><path class="cls-1" d="M341.72,67.72V21.15A21.15,21.15,0,0,0,320.57,0H123.37a21.15,21.15,0,0,0-21.15,21.15V67.72A21.15,21.15,0,0,1,81.07,88.87H21.15A21.15,21.15,0,0,0,0,110V214.17a21.15,21.15,0,0,0,21.15,21.15h362a21.15,21.15,0,0,0,21.15-21.15V110a21.15,21.15,0,0,0-21.15-21.15H362.87A21.15,21.15,0,0,1,341.72,67.72Z" transform="translate(0 63)"/><rect class="cls-2" x="212.49" y="83" width="112.74" height="62" rx="12" ry="12"/></g><g id="back_tire" data-name="back tire"><path d="M135.57,168.77a66.55,66.55,0,1,0,66.58,66.55,66.55,66.55,0,0,0-66.58-66.55ZM132,227.47l-10.23-10.23A22.62,22.62,0,0,1,132,212.87Zm-4.3,5.14H113A22.61,22.61,0,0,1,117.15,222Zm-11.9,14a22.58,22.58,0,0,1-2.63-7.29h12.25ZM132,242.7v15.12a22.66,22.66,0,0,1-12.08-6Zm11.81-3.38H158a22.63,22.63,0,0,1-4.3,9.82Zm5,14.47a22.61,22.61,0,0,1-10.14,4.08V243.59Zm-3.58-21.15,10.4-7.89a22.58,22.58,0,0,1,2.45,7.89Zm6.45-13.27-13,9.89V212.8a22.67,22.67,0,0,1,13,6.54Z" transform="translate(0 63)"/></g><g id="front_tire" data-name="front tire"><path d="M304.55,161.9a66.55,66.55,0,1,0,66.55,66.55,66.55,66.55,0,0,0-66.55-66.55ZM301,220.6l-10.2-10.23A22.62,22.62,0,0,1,301,206Zm-4.3,5.14H282a22.61,22.61,0,0,1,4.13-10.59Zm-11.9,14a22.58,22.58,0,0,1-2.63-7.29h12.25ZM301,235.8v15.12A22.66,22.66,0,0,1,289,245Zm11.81-3.38H327a22.63,22.63,0,0,1-4.3,9.82Zm5,14.47a22.61,22.61,0,0,1-10.1,4.11V236.72Zm-3.58-21.15,10.4-7.89a22.58,22.58,0,0,1,2.45,7.89Zm6.45-13.27-13,9.89V205.93a22.67,22.67,0,0,1,13.08,6.54Z" transform="translate(0 63)"/></g><line class="cls-3" x1="112" y1="2" x2="111" y2="2"/><line class="cls-3" x1="253" y1="167" x2="254" y2="167"/><line class="cls-3" x1="183" y1="21" x2="184" y2="21"/><rect x="217" y="167" width="43" height="7"/><ellipse class="cls-4" cx="396.45" cy="197.5" rx="8.45" ry="27"/><ellipse class="cls-4" cx="8.45" cy="207.66" rx="8.45" ry="27"/></svg>