<svg xmlns="http://www.w3.org/2000/svg" viewBox="0 0 203 414"><defs><style>.cls-1{fill:#a1f7f7;}.cls-2{fill:#dab9ea;}.cls-3{fill:#fafcfc;}</style></defs><title>utensils</title><g id="left_foot" data-name="left foot"><path class="cls-1" d="M356.26,772.16C368.69,756.55,377,728.28,377,696c0-49.15-19.25-89-43-89s-43,39.85-43,89c0,31.26,7.79,58.75,19.56,74.63A933.82,933.82,0,0,1,316,874c0,42.14-2.49,81.41-6.77,114.44C305,1014,324.77,1014,334,1014c8.89,0,24,0,24-23.83-4.43-33.38-7-73.29-7-116.17A937,937,0,0,1,356.26,772.16Zm-1.43,207.41L344.17,990l2.52,14.68-13.18-6.93-13.18,6.93L322.83,990l-10.67-10.4,14.74-2.14,6.59-13.36,6.59,13.36Z" transform="translate(-291 -607)"/><polygon class="cls-2" points="42.5 357.07 35.91 370.43 21.17 372.57 31.83 382.97 29.32 397.65 42.5 390.71 55.68 397.65 53.17 382.97 63.83 372.57 49.09 370.43 42.5 357.07"/><polygon class="cls-2" points="159.5 364.07 152.91 377.43 138.17 379.57 148.83 389.97 146.32 404.65 159.5 397.71 172.68 404.65 170.17 389.97 180.83 379.57 166.09 377.43 159.5 364.07"/><path class="cls-1" d="M408,614V720h.78c2.25,24.08,9.19,44.7,18.78,57.63A933.82,933.82,0,0,1,433,881c0,42.14-2.49,81.41-6.77,114.44C422,1021,441.77,1021,451,1021c8.89,0,24,0,24-23.83-4.43-33.38-7-73.29-7-116.17a937,937,0,0,1,5.27-101.84c10.19-12.79,17.61-34.1,19.95-59.16H494V614Zm63.83,372.57L461.17,997l2.52,14.68-13.18-6.93-13.18,6.93L439.83,997l-10.67-10.4,14.74-2.14,6.59-13.36,6.59,13.36Z" transform="translate(-291 -607)"/><rect class="cls-3" x="134" y="5" width="13" height="84"/><rect class="cls-3" x="174" y="5" width="13" height="84"/></g></svg>