<svg id="Layer_2" data-name="Layer 2" xmlns="http://www.w3.org/2000/svg" viewBox="0 0 547 598.22"><defs><style>.cls-1{fill:#efacde;}.cls-2{fill:#fffdff;}.cls-3{fill:#e5d79c;stroke:#a1f7f7;stroke-miterlimit:10;}</style></defs><title>babydress</title><path class="cls-1" d="M765,775.58V625.66a266.59,266.59,0,0,0-7.73-46.41C738.9,508.3,684.63,421,622.5,419a70.52,70.52,0,0,0-13.5.88V404.54C609,342.11,562.57,291,505.83,291H460V791h0a38.49,38.49,0,0,0,77,0h0a38.49,38.49,0,0,0,77,0h0a38.49,38.49,0,0,0,77,0h0a38.5,38.5,0,1,0,74-15.42Z" transform="translate(-221 -230.78)"/><path class="cls-1" d="M224,775.58V625.66a266.59,266.59,0,0,1,7.73-46.41C250.1,508.3,304.37,421,366.5,419a70.52,70.52,0,0,1,13.5.88V404.54C380,342.11,426.43,291,483.17,291H529V791h0a38.49,38.49,0,0,1-77,0h0a38.49,38.49,0,0,1-77,0h0a38.49,38.49,0,0,1-77,0h0a38.5,38.5,0,1,1-74-15.42Z" transform="translate(-221 -230.78)"/><path class="cls-1" d="M561.4,309.45a175.72,175.72,0,0,0,8.79-77.24c-.21-1.9-3.21-1.92-3,0a173.71,173.71,0,0,1-8.68,76.44c-.64,1.83,2.26,2.61,2.89.8Z" transform="translate(-221 -230.78)"/><path class="cls-1" d="M432.8,312.14a132.19,132.19,0,0,1-19.23-76.29c.11-1.93-2.89-1.92-3,0a135,135,0,0,0,19.64,77.81c1,1.64,3.6.14,2.59-1.51Z" transform="translate(-221 -230.78)"/><ellipse class="cls-2" cx="273" cy="54.22" rx="49.5" ry="14.5"/><polygon class="cls-3" points="254.67 219.33 239.58 211.52 224.58 219.52 227.35 202.75 215.11 190.96 231.91 188.41 239.34 173.13 246.96 188.32 263.79 190.66 251.69 202.6 254.67 219.33"/><polygon class="cls-3" points="306.67 219.33 291.58 211.52 276.58 219.52 279.35 202.75 267.11 190.96 283.91 188.41 291.34 173.13 298.96 188.32 315.79 190.66 303.69 202.6 306.67 219.33"/><polygon class="cls-3" points="205.67 219.33 190.58 211.52 175.58 219.52 178.35 202.75 166.11 190.96 182.91 188.41 190.34 173.13 197.96 188.32 214.79 190.66 202.69 202.6 205.67 219.33"/><polygon class="cls-3" points="368.67 219.33 353.58 211.52 338.58 219.52 341.35 202.75 329.11 190.96 345.91 188.41 353.34 173.13 360.96 188.32 377.79 190.66 365.69 202.6 368.67 219.33"/></svg>