<svg id="el_SkXD4bwh7" xmlns="http://www.w3.org/2000/svg" viewBox="0 0 156 156"><style>@-webkit-keyframes el_r1gQwVZw2X_SJGdrZw2m_Animation{0%{-webkit-transform: translate(77.99500274658203px, 77.97991943359375px) translate(-77.99500274658203px, -77.97991943359375px) translate(-100px, 0px);transform: translate(77.99500274658203px, 77.97991943359375px) translate(-77.99500274658203px, -77.97991943359375px) translate(-100px, 0px);}10%{-webkit-transform: translate(77.99500274658203px, 77.97991943359375px) translate(-77.99500274658203px, -77.97991943359375px) translate(-50px, 100px);transform: translate(77.99500274658203px, 77.97991943359375px) translate(-77.99500274658203px, -77.97991943359375px) translate(-50px, 100px);}20%{-webkit-transform: translate(77.99500274658203px, 77.97991943359375px) translate(-77.99500274658203px, -77.97991943359375px) translate(-20px, -100px);transform: translate(77.99500274658203px, 77.97991943359375px) translate(-77.99500274658203px, -77.97991943359375px) translate(-20px, -100px);}30%{-webkit-transform: translate(77.99500274658203px, 77.97991943359375px) translate(-77.99500274658203px, -77.97991943359375px) translate(0px, 100px);transform: translate(77.99500274658203px, 77.97991943359375px) translate(-77.99500274658203px, -77.97991943359375px) translate(0px, 100px);}40%{-webkit-transform: translate(77.99500274658203px, 77.97991943359375px) translate(-77.99500274658203px, -77.97991943359375px) translate(50px, -100px);transform: translate(77.99500274658203px, 77.97991943359375px) translate(-77.99500274658203px, -77.97991943359375px) translate(50px, -100px);}50%{-webkit-transform: translate(77.99500274658203px, 77.97991943359375px) translate(-77.99500274658203px, -77.97991943359375px) translate(80px, -50px);transform: translate(77.99500274658203px, 77.97991943359375px) translate(-77.99500274658203px, -77.97991943359375px) translate(80px, -50px);}60%{-webkit-transform: translate(77.99500274658203px, 77.97991943359375px) translate(-77.99500274658203px, -77.97991943359375px) translate(120px, 100px);transform: translate(77.99500274658203px, 77.97991943359375px) translate(-77.99500274658203px, -77.97991943359375px) translate(120px, 100px);}70%{-webkit-transform: translate(77.99500274658203px, 77.97991943359375px) translate(-77.99500274658203px, -77.97991943359375px) translate(140px, 40px);transform: translate(77.99500274658203px, 77.97991943359375px) translate(-77.99500274658203px, -77.97991943359375px) translate(140px, 40px);}80%{-webkit-transform: translate(77.99500274658203px, 77.97991943359375px) translate(-77.99500274658203px, -77.97991943359375px) translate(160px, 20px);transform: translate(77.99500274658203px, 77.97991943359375px) translate(-77.99500274658203px, -77.97991943359375px) translate(160px, 20px);}90%{-webkit-transform: translate(77.99500274658203px, 77.97991943359375px) translate(-77.99500274658203px, -77.97991943359375px) translate(180px, 10px);transform: translate(77.99500274658203px, 77.97991943359375px) translate(-77.99500274658203px, -77.97991943359375px) translate(180px, 10px);}100%{-webkit-transform: translate(77.99500274658203px, 77.97991943359375px) translate(-77.99500274658203px, -77.97991943359375px) translate(200px, 0px);transform: translate(77.99500274658203px, 77.97991943359375px) translate(-77.99500274658203px, -77.97991943359375px) translate(200px, 0px);}}@keyframes el_r1gQwVZw2X_SJGdrZw2m_Animation{0%{-webkit-transform: translate(77.99500274658203px, 77.97991943359375px) translate(-77.99500274658203px, -77.97991943359375px) translate(-100px, 0px);transform: translate(77.99500274658203px, 77.97991943359375px) translate(-77.99500274658203px, -77.97991943359375px) translate(-100px, 0px);}10%{-webkit-transform: translate(77.99500274658203px, 77.97991943359375px) translate(-77.99500274658203px, -77.97991943359375px) translate(-50px, 100px);transform: translate(77.99500274658203px, 77.97991943359375px) translate(-77.99500274658203px, -77.97991943359375px) translate(-50px, 100px);}20%{-webkit-transform: translate(77.99500274658203px, 77.97991943359375px) translate(-77.99500274658203px, -77.97991943359375px) translate(-20px, -100px);transform: translate(77.99500274658203px, 77.97991943359375px) translate(-77.99500274658203px, -77.97991943359375px) translate(-20px, -100px);}30%{-webkit-transform: translate(77.99500274658203px, 77.97991943359375px) translate(-77.99500274658203px, -77.97991943359375px) translate(0px, 100px);transform: translate(77.99500274658203px, 77.97991943359375px) translate(-77.99500274658203px, -77.97991943359375px) translate(0px, 100px);}40%{-webkit-transform: translate(77.99500274658203px, 77.97991943359375px) translate(-77.99500274658203px, -77.97991943359375px) translate(50px, -100px);transform: translate(77.99500274658203px, 77.97991943359375px) translate(-77.99500274658203px, -77.97991943359375px) translate(50px, -100px);}50%{-webkit-transform: translate(77.99500274658203px, 77.97991943359375px) translate(-77.99500274658203px, -77.97991943359375px) translate(80px, -50px);transform: translate(77.99500274658203px, 77.97991943359375px) translate(-77.99500274658203px, -77.97991943359375px) translate(80px, -50px);}60%{-webkit-transform: translate(77.99500274658203px, 77.97991943359375px) translate(-77.99500274658203px, -77.97991943359375px) translate(120px, 100px);transform: translate(77.99500274658203px, 77.97991943359375px) translate(-77.99500274658203px, -77.97991943359375px) translate(120px, 100px);}70%{-webkit-transform: translate(77.99500274658203px, 77.97991943359375px) translate(-77.99500274658203px, -77.97991943359375px) translate(140px, 40px);transform: translate(77.99500274658203px, 77.97991943359375px) translate(-77.99500274658203px, -77.97991943359375px) translate(140px, 40px);}80%{-webkit-transform: translate(77.99500274658203px, 77.97991943359375px) translate(-77.99500274658203px, -77.97991943359375px) translate(160px, 20px);transform: translate(77.99500274658203px, 77.97991943359375px) translate(-77.99500274658203px, -77.97991943359375px) translate(160px, 20px);}90%{-webkit-transform: translate(77.99500274658203px, 77.97991943359375px) translate(-77.99500274658203px, -77.97991943359375px) translate(180px, 10px);transform: translate(77.99500274658203px, 77.97991943359375px) translate(-77.99500274658203px, -77.97991943359375px) translate(180px, 10px);}100%{-webkit-transform: translate(77.99500274658203px, 77.97991943359375px) translate(-77.99500274658203px, -77.97991943359375px) translate(200px, 0px);transform: translate(77.99500274658203px, 77.97991943359375px) translate(-77.99500274658203px, -77.97991943359375px) translate(200px, 0px);}}@-webkit-keyframes el_r1gQwVZw2X_H1tu4bw27_Animation{0%{-webkit-transform: translate(77.99500274658203px, 77.97991943359375px) rotate(5deg) translate(-77.99500274658203px, -77.97991943359375px);transform: translate(77.99500274658203px, 77.97991943359375px) rotate(5deg) translate(-77.99500274658203px, -77.97991943359375px);}10%{-webkit-transform: translate(77.99500274658203px, 77.97991943359375px) rotate(10deg) translate(-77.99500274658203px, -77.97991943359375px);transform: translate(77.99500274658203px, 77.97991943359375px) rotate(10deg) translate(-77.99500274658203px, -77.97991943359375px);}20%{-webkit-transform: translate(77.99500274658203px, 77.97991943359375px) rotate(15deg) translate(-77.99500274658203px, -77.97991943359375px);transform: translate(77.99500274658203px, 77.97991943359375px) rotate(15deg) translate(-77.99500274658203px, -77.97991943359375px);}30%{-webkit-transform: translate(77.99500274658203px, 77.97991943359375px) rotate(20deg) translate(-77.99500274658203px, -77.97991943359375px);transform: translate(77.99500274658203px, 77.97991943359375px) rotate(20deg) translate(-77.99500274658203px, -77.97991943359375px);}40%{-webkit-transform: translate(77.99500274658203px, 77.97991943359375px) rotate(30deg) translate(-77.99500274658203px, -77.97991943359375px);transform: translate(77.99500274658203px, 77.97991943359375px) rotate(30deg) translate(-77.99500274658203px, -77.97991943359375px);}50%{-webkit-transform: translate(77.99500274658203px, 77.97991943359375px) rotate(50deg) translate(-77.99500274658203px, -77.97991943359375px);transform: translate(77.99500274658203px, 77.97991943359375px) rotate(50deg) translate(-77.99500274658203px, -77.97991943359375px);}60%{-webkit-transform: translate(77.99500274658203px, 77.97991943359375px) rotate(60deg) translate(-77.99500274658203px, -77.97991943359375px);transform: translate(77.99500274658203px, 77.97991943359375px) rotate(60deg) translate(-77.99500274658203px, -77.97991943359375px);}70%{-webkit-transform: translate(77.99500274658203px, 77.97991943359375px) rotate(65deg) translate(-77.99500274658203px, -77.97991943359375px);transform: translate(77.99500274658203px, 77.97991943359375px) rotate(65deg) translate(-77.99500274658203px, -77.97991943359375px);}80%{-webkit-transform: translate(77.99500274658203px, 77.97991943359375px) rotate(70deg) translate(-77.99500274658203px, -77.97991943359375px);transform: translate(77.99500274658203px, 77.97991943359375px) rotate(70deg) translate(-77.99500274658203px, -77.97991943359375px);}90%{-webkit-transform: translate(77.99500274658203px, 77.97991943359375px) rotate(75deg) translate(-77.99500274658203px, -77.97991943359375px);transform: translate(77.99500274658203px, 77.97991943359375px) rotate(75deg) translate(-77.99500274658203px, -77.97991943359375px);}100%{-webkit-transform: translate(77.99500274658203px, 77.97991943359375px) rotate(0deg) translate(-77.99500274658203px, -77.97991943359375px);transform: translate(77.99500274658203px, 77.97991943359375px) rotate(0deg) translate(-77.99500274658203px, -77.97991943359375px);}}@keyframes el_r1gQwVZw2X_H1tu4bw27_Animation{0%{-webkit-transform: translate(77.99500274658203px, 77.97991943359375px) rotate(5deg) translate(-77.99500274658203px, -77.97991943359375px);transform: translate(77.99500274658203px, 77.97991943359375px) rotate(5deg) translate(-77.99500274658203px, -77.97991943359375px);}10%{-webkit-transform: translate(77.99500274658203px, 77.97991943359375px) rotate(10deg) translate(-77.99500274658203px, -77.97991943359375px);transform: translate(77.99500274658203px, 77.97991943359375px) rotate(10deg) translate(-77.99500274658203px, -77.97991943359375px);}20%{-webkit-transform: translate(77.99500274658203px, 77.97991943359375px) rotate(15deg) translate(-77.99500274658203px, -77.97991943359375px);transform: translate(77.99500274658203px, 77.97991943359375px) rotate(15deg) translate(-77.99500274658203px, -77.97991943359375px);}30%{-webkit-transform: translate(77.99500274658203px, 77.97991943359375px) rotate(20deg) translate(-77.99500274658203px, -77.97991943359375px);transform: translate(77.99500274658203px, 77.97991943359375px) rotate(20deg) translate(-77.99500274658203px, -77.97991943359375px);}40%{-webkit-transform: translate(77.99500274658203px, 77.97991943359375px) rotate(30deg) translate(-77.99500274658203px, -77.97991943359375px);transform: translate(77.99500274658203px, 77.97991943359375px) rotate(30deg) translate(-77.99500274658203px, -77.97991943359375px);}50%{-webkit-transform: translate(77.99500274658203px, 77.97991943359375px) rotate(50deg) translate(-77.99500274658203px, -77.97991943359375px);transform: translate(77.99500274658203px, 77.97991943359375px) rotate(50deg) translate(-77.99500274658203px, -77.97991943359375px);}60%{-webkit-transform: translate(77.99500274658203px, 77.97991943359375px) rotate(60deg) translate(-77.99500274658203px, -77.97991943359375px);transform: translate(77.99500274658203px, 77.97991943359375px) rotate(60deg) translate(-77.99500274658203px, -77.97991943359375px);}70%{-webkit-transform: translate(77.99500274658203px, 77.97991943359375px) rotate(65deg) translate(-77.99500274658203px, -77.97991943359375px);transform: translate(77.99500274658203px, 77.97991943359375px) rotate(65deg) translate(-77.99500274658203px, -77.97991943359375px);}80%{-webkit-transform: translate(77.99500274658203px, 77.97991943359375px) rotate(70deg) translate(-77.99500274658203px, -77.97991943359375px);transform: translate(77.99500274658203px, 77.97991943359375px) rotate(70deg) translate(-77.99500274658203px, -77.97991943359375px);}90%{-webkit-transform: translate(77.99500274658203px, 77.97991943359375px) rotate(75deg) translate(-77.99500274658203px, -77.97991943359375px);transform: translate(77.99500274658203px, 77.97991943359375px) rotate(75deg) translate(-77.99500274658203px, -77.97991943359375px);}100%{-webkit-transform: translate(77.99500274658203px, 77.97991943359375px) rotate(0deg) translate(-77.99500274658203px, -77.97991943359375px);transform: translate(77.99500274658203px, 77.97991943359375px) rotate(0deg) translate(-77.99500274658203px, -77.97991943359375px);}}#el_SkXD4bwh7 *{-webkit-animation-duration: 2s;animation-duration: 2s;-webkit-animation-iteration-count: infinite;animation-iteration-count: infinite;-webkit-animation-timing-function: cubic-bezier(0, 0, 1, 1);animation-timing-function: cubic-bezier(0, 0, 1, 1);}#el_B1ZXvEWD37{fill: #93e0e2;-webkit-transform: translate(-214px, -771px);transform: translate(-214px, -771px);}#el_HJfQPEZPhX{fill: #93e0e2;}#el_HkmXwVbPhm{fill: #93e0e2;-webkit-transform: translate(-214px, -771px);transform: translate(-214px, -771px);}#el_rkEXwNWv2Q{fill: #93e0e2;-webkit-transform: translate(-214px, -771px);transform: translate(-214px, -771px);}#el_H1SXvNWDnm{fill: #93e0e2;-webkit-transform: translate(-214px, -771px);transform: translate(-214px, -771px);}#el_BJ8mPNbDn7{fill: #d6b1ef;-webkit-transform: translate(-214px, -771px);transform: translate(-214px, -771px);}#el_r1gQwVZw2X_H1tu4bw27{-webkit-animation-name: el_r1gQwVZw2X_H1tu4bw27_Animation;animation-name: el_r1gQwVZw2X_H1tu4bw27_Animation;-webkit-transform: translate(77.99500274658203px, 77.97991943359375px) rotate(5deg) translate(-77.99500274658203px, -77.97991943359375px);transform: translate(77.99500274658203px, 77.97991943359375px) rotate(5deg) translate(-77.99500274658203px, -77.97991943359375px);}#el_r1gQwVZw2X_SJGdrZw2m{-webkit-animation-name: el_r1gQwVZw2X_SJGdrZw2m_Animation;animation-name: el_r1gQwVZw2X_SJGdrZw2m_Animation;-webkit-transform: translate(77.99500274658203px, 77.97991943359375px) translate(-77.99500274658203px, -77.97991943359375px) translate(-100px, 0px);transform: translate(77.99500274658203px, 77.97991943359375px) translate(-77.99500274658203px, -77.97991943359375px) translate(-100px, 0px);}</style><defs/><title>ball</title><g id="el_r1gQwVZw2X_SJGdrZw2m" data-animator-group="true" data-animator-type="0"><g id="el_r1gQwVZw2X_H1tu4bw27" data-animator-group="true" data-animator-type="1"><g id="el_r1gQwVZw2X"><path d="M346.71,879.16l-17.11,8.73-16.89-9.15,3,19-13.92,13.23,19,3,3,6.29A78.15,78.15,0,0,0,348.22,903l-5-5Z" id="el_B1ZXvEWD37"/><polygon points="92.5 62.7 74.78 70.1 58.63 59.7 60.2 78.84 45.32 90.97 64 95.4 70.95 113.31 80.93 96.9 100.11 95.83 87.59 81.26 92.5 62.7" id="el_HJfQPEZPhX"/><path d="M255.26,908.48l12.87-14.25L249,892.68,239.42,876,232,893.75l-3.39.71a78.26,78.26,0,0,1-6-9.87A78.29,78.29,0,0,0,259,919.67l-1.2-.57Z" id="el_HkmXwVbPhm"/><path d="M243.2,795.84,228.32,808,247,812.4l6.95,17.9,10-16.4,19.17-1.07-12.51-14.57,4.9-18.57-17.72,7.4-6.84-4.41c.6-.37,1.21-.73,1.81-1.08a78.18,78.18,0,0,0-10.89,7.66l.74-.63Z" id="el_rkEXwNWv2Q"/><path d="M314.09,799l12.76,14.35L322.26,832l17.59-7.7,16.32,10.12-1.89-19.11,5.6-4.73q1.74,3.07,3.21,6.31a78,78,0,0,0-11-17.67l-1.86-.41-1.28-3.13q.71.76,1.41,1.54a78.44,78.44,0,0,0-10.92-10.16l-6.17,10.54Z" id="el_H1SXvNWDnm"/><path d="M348.22,903q2.53-2.63,4.8-5.48h0q1.13-1.42,2.2-2.89l0,0q1-1.45,2-2.94l.08-.12q1-1.46,1.84-3l.13-.22q.86-1.46,1.65-3l.18-.35q.76-1.44,1.45-2.92l.23-.51c.44-.94.86-1.89,1.26-2.86.09-.22.18-.45.27-.68.37-.92.73-1.84,1.06-2.77.1-.29.19-.58.29-.87.3-.88.6-1.77.88-2.66.11-.36.2-.73.31-1.09.24-.84.48-1.68.7-2.53.11-.44.2-.88.31-1.32.18-.79.37-1.57.53-2.37.11-.53.19-1.06.28-1.59.13-.72.27-1.45.38-2.18s.16-1.27.24-1.91.17-1.28.24-1.92.13-1.59.18-2.39c0-.5.09-1,.11-1.51q.1-2,.1-4c0-1.19,0-2.38-.09-3.56,0-.29,0-.58,0-.88-.06-1.14-.15-2.28-.26-3.41,0-.2,0-.39-.07-.59q-.15-1.42-.36-2.82c-.05-.37-.11-.73-.16-1.1-.16-1-.34-2-.54-3-.08-.41-.18-.82-.27-1.22q-.21-1-.45-2c-.12-.49-.24-1-.37-1.48q-.34-1.29-.73-2.56c-.18-.6-.37-1.19-.57-1.78l-.38-1.12q-1.09-3.14-2.43-6.16l-.19-.42q-1.46-3.23-3.21-6.31l-5.6,4.73,1.89,19.11-16.32-10.12L322.26,832l4.59-18.65L314.09,799l19.15-1.4,6.17-10.54h0c-.73-.56-1.48-1.11-2.24-1.65l-.46-.32q-1.08-.76-2.19-1.48l-.52-.33c-.76-.48-1.52-1-2.29-1.42l-.18-.11a77.88,77.88,0,0,0-7.5-3.88l-.92-.42c-.66-.29-1.32-.56-2-.83l-1.26-.5-1.89-.7-1.47-.5c-.6-.2-1.19-.4-1.8-.58s-1.26-.36-1.89-.54-1.34-.37-2-.54c-.91-.23-1.82-.44-2.74-.63l-1.39-.27c-.73-.14-1.46-.27-2.19-.39l-1.45-.21q-1.11-.16-2.23-.28l-1.41-.15c-.82-.08-1.64-.14-2.46-.19l-1.21-.08c-1.23-.06-2.46-.09-3.71-.09s-2.39,0-3.57.09l-1,.05q-1.44.08-2.87.22l-.73.06q-1.69.18-3.36.43l-1.06.17q-1.21.2-2.41.43l-1.15.23c-1,.22-2.05.45-3.07.71l-1.22.33c-.66.18-1.32.37-2,.56l-1.47.45c-.61.2-1.22.41-1.83.62q-1.21.42-2.4.88l-1.51.59-1.7.72-1.2.54q-1.76.81-3.48,1.7l-.56.29c-.61.33-1.22.66-1.82,1l-.9.52c-.61.36-1.22.71-1.81,1.08l6.84,4.41,17.72-7.4-4.9,18.57,12.51,14.57-19.17,1.07-10,16.4L247,812.4,228.32,808l14.88-12.14-.59-7.2-.74.63q-.91.77-1.8,1.56l-.81.73q-1,.91-1.94,1.85l-.76.76q-1,1-1.94,2l-.72.8q-.95,1.06-1.86,2.15l-.6.74q-.82,1-1.62,2.06l-.57.76q-.81,1.1-1.58,2.22l-.51.74q-.82,1.23-1.6,2.49l-.48.79q-.77,1.29-1.5,2.6l-.39.73c-.49.92-1,1.85-1.43,2.8l-.21.46q-.64,1.35-1.23,2.72l-.24.56c-.41,1-.8,2-1.17,3l-.26.7q-.54,1.5-1,3l-.21.67c-.32,1.05-.63,2.11-.9,3.19l-.11.45q-.41,1.61-.75,3.24l-.07.3c-.23,1.13-.43,2.26-.61,3.41,0,.2-.06.39-.09.59q-.25,1.67-.43,3.37c0,.21,0,.42-.06.63-.11,1.15-.2,2.3-.26,3.46,0,.17,0,.33,0,.5-.06,1.22-.09,2.45-.09,3.69s0,2.44.09,3.65c0,.39,0,.77.07,1.16q.08,1.24.19,2.48c0,.44.08.88.13,1.32.09.8.19,1.59.3,2.37.06.41.11.82.17,1.23.17,1.11.37,2.21.59,3.31.09.45.2.89.3,1.33.15.68.3,1.35.47,2s.3,1.14.45,1.71.29,1,.44,1.55.37,1.23.57,1.85c.13.41.27.81.41,1.22q1.24,3.63,2.81,7.09l.24.54q.55,1.17,1.13,2.32l.24.46a78.26,78.26,0,0,0,6,9.87l3.39-.71L239.42,876,249,892.68l19.14,1.55-12.87,14.25,2.53,10.63,1.2.57,1.83.83,1.57.67q1,.42,2.06.81l1.17.44q1.31.47,2.64.89l1.12.35c.93.28,1.86.55,2.81.8l.92.23q1.38.35,2.79.64l.68.14c1,.21,2.05.39,3.09.55l.72.12q1.63.24,3.28.42l.72.07c1.13.11,2.26.2,3.4.26l.55,0c1.21.06,2.43.09,3.66.09s2.54,0,3.79-.1h.31c1.16-.06,2.31-.15,3.46-.26l.63-.06c1-.11,2.08-.24,3.11-.4l1-.14c.92-.15,1.84-.31,2.75-.49l1.29-.26q1.2-.26,2.39-.55l1.61-.41,1.71-.49c.75-.22,1.49-.45,2.23-.69l.4-.14q1.74-.58,3.44-1.23l0,0q1.85-.72,3.66-1.52h0l-3-6.29-19-3,13.92-13.23-3-19,16.89,9.15,17.11-8.73L343.24,898l5,5h0ZM320.46,788.91c-.6,2.13-7.33,2.1-15-.06s-13.48-5.63-12.89-7.76,7.33-2.1,15,.06S321.06,786.78,320.46,788.91Zm-25.53,79-10,16.4L278,866.4,259.32,862l14.88-12.14-1.56-19.14,16.14,10.4,17.72-7.4-4.9,18.57,12.51,14.57Z" id="el_BJ8mPNbDn7"/></g></g></g></svg>