<svg id="Layer_2" data-name="Layer 2" xmlns="http://www.w3.org/2000/svg" viewBox="0 0 881.65 629.55"><defs><style>.cls-1,.cls-2{fill:#f4f4a8;stroke:aqua;stroke-miterlimit:10;}.cls-1{stroke-width:3px;}.cls-3{fill:aqua;}.cls-4{fill:#93e0e2;}</style></defs><title>bib</title><path class="cls-1" d="M87.19,500.62c-5.31,2.55-10.57,5.24-15.82,8C38,591.35,45.9,689.76,101,770.08,187.56,896.27,357.73,930,481.09,845.36c115-78.88,148.68-232.74,82.59-355.46-1.7-.71-3.38-1.47-5.09-2.16a288.37,288.37,0,0,1-73.84,73.32C357.76,648.16,185.27,620.05,87.19,500.62Z" transform="translate(-50.03 -263.95)"/><circle class="cls-2" cx="429.3" cy="148.69"/><path class="cls-3" d="M554.25,487.93a434.5,434.5,0,0,0-49.36-90.22c-18.28-25.51-39.26-50.32-50.55-80A113.09,113.09,0,0,1,448,293.84a71.27,71.27,0,0,1-.91-14.38c.36-5.93,4.14-15.45,12-12,1.75.76,3.28-1.82,1.51-2.59-5.43-2.37-11.24,0-14.16,5.13-3.78,6.59-2.55,15.54-1.63,22.7,2.06,16,8,31.2,15.63,45.32,17.23,31.77,42,58.7,60.58,89.64a436.61,436.61,0,0,1,30.29,61.08c.72,1.77,3.62,1,2.89-.8Z" transform="translate(-50.03 -263.95)"/><path class="cls-3" d="M73.18,509.92a739,739,0,0,0,54.25-121.07c6.89-20.06,11.11-42.07,21.42-60.75,10-18.2,27.41-28.8,46.33-36.05,23.15-8.87,47.37-15.31,71-22.67,1.84-.57,1.05-3.47-.8-2.89-22.21,6.91-44.75,13.18-66.64,21-16.9,6.07-33.87,14.23-45.42,28.46-13,16.07-17.47,37.06-23.61,56.33q-10.68,33.56-24.56,66a739.84,739.84,0,0,1-34.58,70.08c-.94,1.69,1.65,3.2,2.59,1.51Z" transform="translate(-50.03 -263.95)"/><path d="M930.22,706.65a1.5,1.5,0,0,0,0-3,1.5,1.5,0,0,0,0,3Z" transform="translate(-50.03 -263.95)"/><g id="bottle"><path class="cls-4" d="M381.26,816.57a29.3,29.3,0,0,0,1.09-7.9V737c0-16.53-13.78-30.06-30.63-30.06H316.5c-16.84,0-30.63,13.54-30.63,30.06v71.64a29.3,29.3,0,0,0,1.09,7.9Z" transform="translate(-50.03 -263.95)"/><path class="cls-4" d="M298.75,695.33h70.71a7.64,7.64,0,0,1,7.75,7.52V704a7.64,7.64,0,0,1-7.75,7.52H298.75A7.64,7.64,0,0,1,291,704v-1.18A7.64,7.64,0,0,1,298.75,695.33Z" transform="translate(-50.03 -263.95)"/><path class="cls-4" d="M366.6,695.27a1.49,1.49,0,0,0,.09-.49c0-2.11-4.85-4-12.38-5.27-6-1-10.23-5.5-10.21-10.76v-.11a33.6,33.6,0,0,0-.59-6,10.25,10.25,0,0,0,2.65-6.79c0-6.22-5.86-11.26-13.06-11.26s-13.06,5-13.06,11.26a10.25,10.25,0,0,0,2.65,6.79,33.6,33.6,0,0,0-.59,6v.7c.14,5.05-3.93,9.49-9.65,10.63-6.08,1.22-9.87,2.92-9.87,4.81a1.49,1.49,0,0,0,.09.49Z" transform="translate(-50.03 -263.95)"/><rect class="cls-4" x="238.92" y="483.69" width="16.94" height="3.98"/><rect class="cls-4" x="238.92" y="489.87" width="13.86" height="1.77"/><rect class="cls-4" x="238.92" y="501.36" width="13.86" height="1.77"/><rect class="cls-4" x="238.92" y="497.83" width="13.86" height="1.77"/><rect class="cls-4" x="238.92" y="493.85" width="13.86" height="1.77"/><rect class="cls-4" x="238.92" y="462.48" width="16.94" height="3.98"/><rect class="cls-4" x="238.92" y="468.66" width="13.86" height="1.77"/><rect class="cls-4" x="238.92" y="480.15" width="13.86" height="1.77"/><rect class="cls-4" x="238.92" y="476.62" width="13.86" height="1.77"/><rect class="cls-4" x="238.92" y="472.64" width="13.86" height="1.77"/><rect class="cls-4" x="238.92" y="526.11" width="16.94" height="3.98"/><rect class="cls-4" x="238.92" y="532.3" width="13.86" height="1.77"/><rect class="cls-4" x="238.92" y="543.79" width="13.86" height="1.77"/><rect class="cls-4" x="238.92" y="540.25" width="13.86" height="1.77"/><rect class="cls-4" x="238.92" y="536.28" width="13.86" height="1.77"/><rect class="cls-4" x="238.92" y="504.9" width="16.94" height="3.98"/><rect class="cls-4" x="238.92" y="511.09" width="13.86" height="1.77"/><rect class="cls-4" x="238.92" y="522.58" width="13.86" height="1.77"/><rect class="cls-4" x="238.92" y="519.04" width="13.86" height="1.77"/><rect class="cls-4" x="238.92" y="515.06" width="13.86" height="1.77"/><rect class="cls-4" x="248.6" y="433.72" width="1.11" height="12.37"/><rect class="cls-4" x="276.87" y="433.72" width="1.11" height="12.37"/><rect class="cls-4" x="281.31" y="433.72" width="1.11" height="12.37"/><rect class="cls-4" x="272.44" y="433.72" width="1.11" height="12.37"/><rect class="cls-4" x="268" y="433.72" width="1.11" height="12.37"/><rect class="cls-4" x="263.57" y="433.72" width="1.11" height="12.37"/><rect class="cls-4" x="258.58" y="433.72" width="1.11" height="12.37"/><rect class="cls-4" x="253.59" y="433.72" width="1.11" height="12.37"/><rect class="cls-4" x="285.19" y="433.72" width="1.11" height="12.37"/><rect class="cls-4" x="313.47" y="433.72" width="1.11" height="12.37"/><rect class="cls-4" x="317.91" y="433.72" width="1.11" height="12.37"/><rect class="cls-4" x="309.04" y="433.72" width="1.11" height="12.37"/><rect class="cls-4" x="304.6" y="433.72" width="1.11" height="12.37"/><rect class="cls-4" x="300.17" y="433.72" width="1.11" height="12.37"/><rect class="cls-4" x="295.18" y="433.72" width="1.11" height="12.37"/><rect class="cls-4" x="290.19" y="433.72" width="1.11" height="12.37"/></g></svg>