<svg id="Layer_2" data-name="Layer 2" xmlns="http://www.w3.org/2000/svg" viewBox="0 0 656.55 648.66"><defs><style>.cls-1{fill:#f4f4a8;}.cls-2,.cls-3{fill:#dab9ea;}.cls-2{stroke:#a1f7f7;stroke-miterlimit:10;}.cls-4{fill:#a1f7f7;}</style></defs><title>blanket</title><path class="cls-1" d="M956,875,492.16,887c-10,0-8.16-48-8.16-58L474,377.16A18.16,18.16,0,0,1,492.16,359L947,378c10,0,55-10.87,55-.84V868.84C1002,878.87,966,875,956,875Z" transform="translate(-411.82 -300)"/><polygon class="cls-2" points="105.18 59.07 117.8 84.63 146.01 88.73 125.6 108.63 130.42 136.73 105.18 123.47 79.95 136.73 84.77 108.63 64.35 88.73 92.57 84.63 105.18 59.07"/><polygon class="cls-2" points="179.22 195.96 199.1 216.39 227.2 211.6 213.91 236.82 227.16 262.07 199.06 257.22 179.14 277.62 175.07 249.4 149.51 236.76 175.09 224.17 179.22 195.96"/><polygon class="cls-2" points="464 165.03 484 185.34 512.08 180.39 498.94 205.69 512.33 230.86 484.2 226.18 464.41 246.69 460.17 218.5 434.54 206.01 460.04 193.26 464 165.03"/><polygon class="cls-2" points="406.18 422.07 418.8 447.63 447.01 451.73 426.6 471.63 431.42 499.73 406.18 486.47 380.95 499.73 385.77 471.63 365.35 451.73 393.57 447.63 406.18 422.07"/><polygon class="cls-2" points="156.18 461.07 168.8 486.63 197.01 490.73 176.6 510.63 181.42 538.73 156.18 525.47 130.95 538.73 135.77 510.63 115.35 490.73 143.57 486.63 156.18 461.07"/><polygon class="cls-2" points="374.87 277.04 371.93 305.39 393.62 323.89 365.74 329.86 354.85 356.21 340.56 331.54 312.14 329.32 331.19 308.11 324.51 280.39 350.57 291.95 374.87 277.04"/><polygon class="cls-2" points="241.78 342.91 243.86 371.35 268.47 385.75 242.07 396.52 235.98 424.37 217.58 402.59 189.21 405.4 204.23 381.18 192.79 355.06 220.48 361.87 241.78 342.91"/><polygon class="cls-2" points="520.42 361.47 544.29 377.06 570.66 366.23 563.22 393.75 581.67 415.48 553.2 416.91 538.23 441.17 528.07 414.53 500.37 407.79 522.57 389.9 520.42 361.47"/><polygon class="cls-2" points="567.63 492.95 562.25 520.95 582.26 541.25 553.98 544.78 540.85 570.09 528.75 544.28 500.62 539.61 521.43 520.13 517.17 491.94 542.14 505.71 567.63 492.95"/><polygon class="cls-2" points="287.9 90.65 310.07 108.56 337.41 100.46 327.22 127.08 343.38 150.57 314.9 149.11 297.56 171.74 290.15 144.21 263.27 134.7 287.17 119.15 287.9 90.65"/><rect class="cls-3" x="77.68" y="0.5" width="21" height="71"/><path class="cls-4" d="M510,301v70H490V301h20m1-1H489v72h22V300Z" transform="translate(-411.82 -300)"/><rect class="cls-3" x="127.68" y="0.5" width="21" height="71"/><path class="cls-4" d="M560,301v70H540V301h20m1-1H539v72h22V300Z" transform="translate(-411.82 -300)"/><rect class="cls-3" x="163.68" y="0.5" width="21" height="71"/><path class="cls-4" d="M596,301v70H576V301h20m1-1H575v72h22V300Z" transform="translate(-411.82 -300)"/><rect class="cls-3" x="213.68" y="0.5" width="21" height="71"/><path class="cls-4" d="M646,301v70H626V301h20m1-1H625v72h22V300Z" transform="translate(-411.82 -300)"/><rect class="cls-3" x="252.68" y="5.5" width="21" height="71"/><path class="cls-4" d="M685,306v70H665V306h20m1-1H664v72h22V305Z" transform="translate(-411.82 -300)"/><rect class="cls-3" x="292.68" y="0.5" width="21" height="71"/><path class="cls-4" d="M725,301v70H705V301h20m1-1H704v72h22V300Z" transform="translate(-411.82 -300)"/><rect class="cls-3" x="342.68" y="5.5" width="21" height="71"/><path class="cls-4" d="M775,306v70H755V306h20m1-1H754v72h22V305Z" transform="translate(-411.82 -300)"/><rect class="cls-3" x="385.68" y="8.5" width="21" height="71"/><path class="cls-4" d="M818,309v70H798V309h20m1-1H797v72h22V308Z" transform="translate(-411.82 -300)"/><rect class="cls-3" x="428.68" y="8.5" width="21" height="71"/><path class="cls-4" d="M861,309v70H841V309h20m1-1H840v72h22V308Z" transform="translate(-411.82 -300)"/><rect class="cls-3" x="478.68" y="8.5" width="21" height="71"/><path class="cls-4" d="M911,309v70H891V309h20m1-1H890v72h22V308Z" transform="translate(-411.82 -300)"/><rect class="cls-3" x="514.68" y="8.5" width="21" height="71"/><path class="cls-4" d="M947,309v70H927V309h20m1-1H926v72h22V308Z" transform="translate(-411.82 -300)"/><rect class="cls-3" x="564.68" y="8.5" width="21" height="71"/><path class="cls-4" d="M997,309v70H977V309h20m1-1H976v72h22V308Z" transform="translate(-411.82 -300)"/><rect class="cls-3" x="416.31" y="868.03" width="71" height="21" transform="translate(-427.3 -291.86) rotate(-1.01)"/><path class="cls-4" d="M486.63,867.91l.35,20-70,1.24-.35-20,70-1.24m1-1-72,1.27.39,22,72-1.27-.39-22Z" transform="translate(-411.82 -300)"/><rect class="cls-3" x="415.43" y="818.04" width="71" height="21" transform="translate(-426.41 -291.89) rotate(-1.01)"/><path class="cls-4" d="M485.74,817.92l.35,20-70,1.24-.35-20,70-1.24m1-1-72,1.27.39,22,72-1.27-.39-22Z" transform="translate(-411.82 -300)"/><rect class="cls-3" x="414.79" y="782.05" width="71" height="21" transform="translate(-425.79 -291.9) rotate(-1.02)"/><path class="cls-4" d="M485.11,781.93l.35,20-70,1.24-.35-20,70-1.24m1-1-72,1.27.39,22,72-1.27-.39-22Z" transform="translate(-411.82 -300)"/><rect class="cls-3" x="413.9" y="732.05" width="71" height="21" transform="translate(-424.9 -291.92) rotate(-1.02)"/><path class="cls-4" d="M484.22,731.94l.35,20-70,1.24-.35-20,70-1.24m1-1-72,1.27.39,22,72-1.27-.39-22Z" transform="translate(-411.82 -300)"/><rect class="cls-3" x="418.21" y="692.97" width="71" height="21" transform="translate(-424.2 -291.86) rotate(-1.01)"/><path class="cls-4" d="M488.53,692.85l.35,20-70,1.24-.35-20,70-1.24m1-1-72,1.27.39,22,72-1.27-.39-22Z" transform="translate(-411.82 -300)"/><rect class="cls-3" x="412.51" y="653.07" width="71" height="21" transform="translate(-423.49 -291.97) rotate(-1.01)"/><path class="cls-4" d="M482.82,652.95l.35,20-70,1.24-.35-20,70-1.24m1-1-72,1.27.39,22,72-1.27-.39-22Z" transform="translate(-411.82 -300)"/><rect class="cls-3" x="416.62" y="602.99" width="71" height="21" transform="translate(-422.61 -291.89) rotate(-1.02)"/><path class="cls-4" d="M486.94,602.87l.35,20-70,1.24-.35-20,70-1.24m1-1-72,1.27.39,22,72-1.27-.39-22Z" transform="translate(-411.82 -300)"/><rect class="cls-3" x="418.86" y="559.94" width="71" height="21" transform="translate(-421.85 -291.86) rotate(-1.01)"/><path class="cls-4" d="M489.17,559.82l.35,20-70,1.24-.35-20,70-1.24m1-1-72,1.27.39,22,72-1.27-.39-22Z" transform="translate(-411.82 -300)"/><rect class="cls-3" x="418.1" y="516.95" width="71" height="21" transform="translate(-421.08 -291.89) rotate(-1.01)"/><path class="cls-4" d="M488.41,516.83l.35,20-70,1.24-.35-20,70-1.24m1-1-72,1.27.39,22,72-1.27-.39-22Z" transform="translate(-411.82 -300)"/><rect class="cls-3" x="417.21" y="466.95" width="71" height="21" transform="translate(-420.2 -291.91) rotate(-1.01)"/><path class="cls-4" d="M487.53,466.84l.35,20-70,1.24-.35-20,70-1.24m1-1-72,1.27.39,22,72-1.27-.39-22Z" transform="translate(-411.82 -300)"/><rect class="cls-3" x="416.57" y="430.96" width="71" height="21" transform="translate(-419.56 -291.93) rotate(-1.01)"/><path class="cls-4" d="M486.89,430.84l.35,20-70,1.24-.35-20,70-1.24m1-1-72,1.27.39,22,72-1.27-.39-22Z" transform="translate(-411.82 -300)"/><rect class="cls-3" x="415.69" y="380.97" width="71" height="21" transform="translate(-418.68 -291.95) rotate(-1.01)"/><path class="cls-4" d="M486,380.85l.35,20-70,1.24-.35-20,70-1.24m1-1-72,1.27.39,22,72-1.27-.39-22Z" transform="translate(-411.82 -300)"/><rect class="cls-3" x="995.22" y="373.98" width="71" height="21" transform="translate(-414.6 -292.45) rotate(-0.42)"/><path class="cls-4" d="M1065.65,374.22l.15,20-70,.51-.15-20,70-.51m1-1-72,.53.16,22,72-.53-.16-22Z" transform="translate(-411.82 -300)"/><rect class="cls-3" x="995.59" y="423.98" width="71" height="21" transform="translate(-414.96 -292.46) rotate(-0.42)"/><path class="cls-4" d="M1066,424.22l.15,20-70,.51-.15-20,70-.51m1-1-72,.53.16,22,72-.53-.16-22Z" transform="translate(-411.82 -300)"/><rect class="cls-3" x="995.85" y="459.97" width="71" height="21" transform="translate(-415.22 -292.45) rotate(-0.42)"/><path class="cls-4" d="M1066.28,460.22l.15,20-70,.51-.15-20,70-.51m1-1-72,.53.16,22,72-.53-.16-22Z" transform="translate(-411.82 -300)"/><rect class="cls-3" x="996.21" y="509.97" width="71" height="21" transform="translate(-415.59 -292.45) rotate(-0.42)"/><path class="cls-4" d="M1066.64,510.22l.15,20-70,.51-.15-20,70-.51m1-1-72,.53.16,22,72-.53-.16-22Z" transform="translate(-411.82 -300)"/><rect class="cls-3" x="991.5" y="549.01" width="71" height="21" transform="translate(-415.88 -292.48) rotate(-0.42)"/><path class="cls-4" d="M1061.93,549.25l.15,20-70,.51-.15-20,70-.51m1-1-72,.53.16,22,72-.53-.16-22Z" transform="translate(-411.82 -300)"/><rect class="cls-3" x="996.79" y="588.97" width="71" height="21" transform="translate(-416.17 -292.44) rotate(-0.42)"/><path class="cls-4" d="M1067.22,589.22l.15,20-70,.51-.15-20,70-.51m1-1-72,.53.16,22,72-.53-.16-22Z" transform="translate(-411.82 -300)"/><rect class="cls-3" x="992.16" y="639.01" width="71" height="21" transform="translate(-416.53 -292.48) rotate(-0.42)"/><path class="cls-4" d="M1062.58,639.25l.15,20-70,.51-.15-20,70-.51m1-1-72,.53.16,22,72-.53-.16-22Z" transform="translate(-411.82 -300)"/><rect class="cls-3" x="989.47" y="682.03" width="71" height="21" transform="translate(-416.85 -292.5) rotate(-0.42)"/><path class="cls-4" d="M1059.9,682.27l.15,20-70,.51-.15-20,70-.51m1-1-72,.53.16,22,72-.53-.16-22Z" transform="translate(-411.82 -300)"/><rect class="cls-3" x="989.79" y="725.03" width="71" height="21" transform="translate(-417.16 -292.49) rotate(-0.42)"/><path class="cls-4" d="M1060.21,725.27l.15,20-70,.51-.15-20,70-.51m1-1-72,.53.16,22,72-.53-.16-22Z" transform="translate(-411.82 -300)"/><rect class="cls-3" x="990.15" y="775.03" width="71" height="21" transform="translate(-417.52 -292.5) rotate(-0.42)"/><path class="cls-4" d="M1060.58,775.27l.15,20-70,.51-.15-20,70-.51m1-1-72,.53.16,22,72-.53-.16-22Z" transform="translate(-411.82 -300)"/><rect class="cls-3" x="990.41" y="811.02" width="71" height="21" transform="translate(-417.78 -292.5) rotate(-0.42)"/><path class="cls-4" d="M1060.84,811.27l.15,20-70,.51-.15-20,70-.51m1-1-72,.53.16,22,72-.53-.16-22Z" transform="translate(-411.82 -300)"/><rect class="cls-3" x="990.78" y="861.02" width="71" height="21" transform="translate(-418.15 -292.48) rotate(-0.42)"/><path class="cls-4" d="M1061.21,861.27l.15,20-70,.51-.15-20,70-.51m1-1-72,.53.16,22,72-.53-.16-22Z" transform="translate(-411.82 -300)"/><rect class="cls-3" x="488.48" y="871.05" width="21" height="71" transform="translate(-417.62 -296.78) rotate(-0.37)"/><path class="cls-4" d="M508.76,871.49l.45,70-20,.13-.45-70,20-.13m1-1-22,.14.46,72,22-.14-.46-72Z" transform="translate(-411.82 -300)"/><rect class="cls-3" x="538.48" y="870.74" width="21" height="71" transform="translate(-417.62 -296.46) rotate(-0.37)"/><path class="cls-4" d="M558.75,871.17l.45,70-20,.13-.45-70,20-.13m1-1-22,.14.46,72,22-.14-.46-72Z" transform="translate(-411.82 -300)"/><rect class="cls-3" x="574.48" y="870.51" width="21" height="71" transform="translate(-417.62 -296.23) rotate(-0.37)"/><path class="cls-4" d="M594.75,870.94l.45,70-20,.13-.45-70,20-.13m1-1-22,.14.46,72,22-.14-.46-72Z" transform="translate(-411.82 -300)"/><rect class="cls-3" x="624.48" y="870.19" width="21" height="71" transform="translate(-417.62 -295.91) rotate(-0.37)"/><path class="cls-4" d="M644.75,870.62l.45,70-20,.13-.45-70,20-.13m1-1-22,.14.46,72,22-.14-.46-72Z" transform="translate(-411.82 -300)"/><rect class="cls-3" x="663.51" y="874.94" width="21" height="71" transform="translate(-417.65 -295.66) rotate(-0.37)"/><path class="cls-4" d="M683.78,875.37l.45,70-20,.13-.45-70,20-.13m1-1-22,.14.46,72,22-.14-.46-72Z" transform="translate(-411.82 -300)"/><rect class="cls-3" x="703.47" y="869.68" width="21" height="71" transform="translate(-417.61 -295.4) rotate(-0.37)"/><path class="cls-4" d="M723.75,870.12l.45,70-20,.13-.45-70,20-.13m1-1-22,.14.46,72,22-.14-.46-72Z" transform="translate(-411.82 -300)"/><rect class="cls-3" x="753.51" y="874.36" width="21" height="71" transform="translate(-417.64 -295.08) rotate(-0.37)"/><path class="cls-4" d="M773.78,874.8l.45,70-20,.13-.45-70,20-.13m1-1-22,.14.46,72,22-.14-.46-72Z" transform="translate(-411.82 -300)"/><rect class="cls-3" x="796.52" y="877.09" width="21" height="71" transform="translate(-417.66 -294.8) rotate(-0.37)"/><path class="cls-4" d="M816.8,877.52l.45,70-20,.13-.45-70,20-.13m1-1-22,.14.46,72,22-.14-.46-72Z" transform="translate(-411.82 -300)"/><rect class="cls-3" x="839.52" y="876.81" width="21" height="71" transform="translate(-417.65 -294.53) rotate(-0.37)"/><path class="cls-4" d="M859.8,877.25l.45,70-20,.13-.45-70,20-.13m1-1-22,.14.46,72,22-.14-.46-72Z" transform="translate(-411.82 -300)"/><rect class="cls-3" x="889.52" y="876.49" width="21" height="71" transform="translate(-417.65 -294.21) rotate(-0.37)"/><path class="cls-4" d="M909.8,876.93l.45,70-20,.13-.45-70,20-.13m1-1-22,.14.46,72,22-.14-.46-72Z" transform="translate(-411.82 -300)"/><rect class="cls-3" x="925.52" y="876.26" width="21" height="71" transform="translate(-417.65 -293.97) rotate(-0.37)"/><path class="cls-4" d="M945.8,876.7l.45,70-20,.13-.45-70,20-.13m1-1-22,.14.46,72,22-.14-.46-72Z" transform="translate(-411.82 -300)"/><rect class="cls-3" x="975.52" y="875.94" width="21" height="71" transform="translate(-417.65 -293.65) rotate(-0.37)"/><path class="cls-4" d="M995.8,876.38l.45,70-20,.13-.45-70,20-.13m1-1-22,.14.46,72,22-.14-.46-72Z" transform="translate(-411.82 -300)"/></svg>