<svg xmlns="http://www.w3.org/2000/svg" viewBox="0 0 133 230" id="el_rkNmR6gvhQ"><style>@-webkit-keyframes el_Hy6ZmATxD3X_Animation{0%{opacity: 1;}13.33%{opacity: 0.9;}25%{opacity: 0.8;}36.67%{opacity: 0.65;}50%{opacity: 0.5;}63.33%{opacity: 0.4;}75%{opacity: 0.3;}86.67%{opacity: 0.20679999999999998;}93.33%{opacity: 0.1;}100%{opacity: 0;}}@keyframes el_Hy6ZmATxD3X_Animation{0%{opacity: 1;}13.33%{opacity: 0.9;}25%{opacity: 0.8;}36.67%{opacity: 0.65;}50%{opacity: 0.5;}63.33%{opacity: 0.4;}75%{opacity: 0.3;}86.67%{opacity: 0.20679999999999998;}93.33%{opacity: 0.1;}100%{opacity: 0;}}#el_rkNmR6gvhQ *{-webkit-animation-duration: 2s;animation-duration: 2s;-webkit-animation-iteration-count: infinite;animation-iteration-count: infinite;-webkit-animation-timing-function: cubic-bezier(0, 0, 1, 1);animation-timing-function: cubic-bezier(0, 0, 1, 1);}#el_H1LQCpgvh7{fill: #93e0e2;-webkit-transform: translate(-500px, -755.43px);transform: translate(-500px, -755.43px);}#el_HyvmCTxDh7{fill: #f4f4a8;}#el_BydXCpevnm{fill: #fff;stroke: #06fcfc;stroke-miterlimit: 10;-webkit-transform: translate(-500px, -755.43px);transform: translate(-500px, -755.43px);}#el_ryYmRpgw3X{fill: #d6b1ef;}#el_S157RpeDhX{fill: #d6b1ef;}#el_BksQ06gwhX{fill: #d6b1ef;}#el_rk3QC6lwnX{fill: #d6b1ef;}#el_HypXCagDnm{fill: #d6b1ef;}#el_HJAXCalvnQ{fill: #d6b1ef;}#el_SJJgmCpxw2m{fill: #d6b1ef;}#el_SyexmC6xwhm{fill: #d6b1ef;}#el_rJ-eQ0TgvhQ{fill: #d6b1ef;}#el_rJMlXR6ev3Q{fill: #d6b1ef;}#el_B17xmATlP2Q{fill: #d6b1ef;}#el_BkVe7RpxPnX{fill: #d6b1ef;}#el_B1rg7Ralv3Q{fill: #d6b1ef;}#el_SkUgXCplD3m{fill: #d6b1ef;}#el_S1Dg7C6xDhX{fill: #d6b1ef;}#el_H1demRalwh7{fill: #d6b1ef;}#el_SkKlmRaxDh7{fill: #d6b1ef;}#el_Hyqx7Cagwn7{fill: #d6b1ef;}#el_SJjxXRpgvnX{fill: #d6b1ef;}#el_HkhxQRaxv27{fill: #d6b1ef;}#el_rkpl7C6xw2Q{fill: #f2ec1c;}#el_HJAl7RTlw37{fill: #f2ec1c;}#el_Hkkb70alP2X{fill: #f2ec1c;}#el_S1lb7RpgD37{fill: #f2ec1c;}#el_BkWWQCalDnm{fill: #f2ec1c;}#el_BkfZQRTlvhm{fill: #f2ec1c;}#el_HyQ-mCpxwh7{fill: #f2ec1c;}#el_H14-mC6gDhQ{fill: #f2ec1c;}#el_ByHWQCpxw3Q{fill: #f2ec1c;}#el_ryIb706ew2Q{fill: #f2ec1c;}#el_BJDWQCTeP3Q{fill: #f2ec1c;}#el_H1uZQAagvh7{fill: #f2ec1c;}#el_HyKbQC6lDnX{fill: #f2ec1c;}#el_r19W70TgD3m{fill: #f2ec1c;}#el_S1s-mAalv2m{fill: #f2ec1c;}#el_rknW70pgDhm{fill: #f2ec1c;}#el_rJAZQA6xw27{fill: #fff;-webkit-transform: translate(-500px, -755.43px);transform: translate(-500px, -755.43px);}#el_Hy6ZmATxD3X{-webkit-animation-name: el_Hy6ZmATxD3X_Animation;animation-name: el_Hy6ZmATxD3X_Animation;opacity: 1;}</style><defs/><title>bottle</title><g id="el_BJBmC6gPn7"><path d="M631.5,986a42.81,42.81,0,0,0,1.5-11.22V873c0-23.48-19-42.7-42.22-42.7H542.22C519,830.32,500,849.53,500,873V974.78A42.81,42.81,0,0,0,501.5,986Z" id="el_H1LQCpgvh7"/><rect x="7.07" y="58.34" width="118.85" height="23.05" rx="10.69" ry="10.69" id="el_HyvmCTxDh7"/><path d="M611.29,813.68a2.18,2.18,0,0,0,.13-.7c0-3-6.68-5.75-17.06-7.49-8.26-1.38-14.1-7.82-14.07-15.28v-.15a49.14,49.14,0,0,0-.82-8.48,14.81,14.81,0,0,0,3.65-9.65c0-8.84-8.08-16-18-16s-18,7.17-18,16a14.81,14.81,0,0,0,3.65,9.65,49.14,49.14,0,0,0-.82,8.48q0,.49,0,1c.19,7.18-5.42,13.48-13.3,15.1-8.38,1.73-13.6,4.15-13.6,6.84a2.18,2.18,0,0,0,.13.7Z" id="el_BydXCpevnm"/><rect x="4.24" y="132.64" width="23.35" height="5.65" id="el_ryYmRpgw3X"/><rect x="4.24" y="141.43" width="19.1" height="2.51" id="el_S157RpeDhX"/><rect x="4.24" y="157.75" width="19.1" height="2.51" id="el_BksQ06gwhX"/><rect x="4.24" y="152.73" width="19.1" height="2.51" id="el_rk3QC6lwnX"/><rect x="4.24" y="147.08" width="19.1" height="2.51" id="el_HypXCagDnm"/><rect x="4.24" y="102.51" width="23.35" height="5.65" id="el_HJAXCalvnQ"/><rect x="4.24" y="111.3" width="19.1" height="2.51" id="el_SJJgmCpxw2m"/><rect x="4.24" y="127.62" width="19.1" height="2.51" id="el_SyexmC6xwhm"/><rect x="4.24" y="122.6" width="19.1" height="2.51" id="el_rJ-eQ0TgvhQ"/><rect x="4.24" y="116.95" width="19.1" height="2.51" id="el_rJMlXR6ev3Q"/><rect x="4.24" y="192.91" width="23.35" height="5.65" id="el_B17xmATlP2Q"/><rect x="4.24" y="201.7" width="19.1" height="2.51" id="el_BkVe7RpxPnX"/><rect x="4.24" y="218.02" width="19.1" height="2.51" id="el_B1rg7Ralv3Q"/><rect x="4.24" y="213" width="19.1" height="2.51" id="el_SkUgXCplD3m"/><rect x="4.24" y="207.35" width="19.1" height="2.51" id="el_S1Dg7C6xDhX"/><rect x="4.24" y="162.78" width="23.35" height="5.65" id="el_H1demRalwh7"/><rect x="4.24" y="171.57" width="19.1" height="2.51" id="el_SkKlmRaxDh7"/><rect x="4.24" y="187.89" width="19.1" height="2.51" id="el_Hyqx7Cagwn7"/><rect x="4.24" y="182.86" width="19.1" height="2.51" id="el_SJjxXRpgvnX"/><rect x="4.24" y="177.21" width="19.1" height="2.51" id="el_HkhxQRaxv27"/><rect x="17.58" y="61.65" width="1.53" height="17.58" id="el_rkpl7C6xw2Q"/><rect x="56.56" y="61.65" width="1.53" height="17.58" id="el_HJAl7RTlw37"/><rect x="62.68" y="61.65" width="1.53" height="17.58" id="el_Hkkb70alP2X"/><rect x="50.45" y="61.65" width="1.53" height="17.58" id="el_S1lb7RpgD37"/><rect x="44.33" y="61.65" width="1.53" height="17.58" id="el_BkWWQCalDnm"/><rect x="38.22" y="61.65" width="1.53" height="17.58" id="el_BkfZQRTlvhm"/><rect x="31.34" y="61.65" width="1.53" height="17.58" id="el_HyQ-mCpxwh7"/><rect x="24.46" y="61.65" width="1.53" height="17.58" id="el_H14-mC6gDhQ"/><rect x="68.03" y="61.65" width="1.53" height="17.58" id="el_ByHWQCpxw3Q"/><rect x="107.01" y="61.65" width="1.53" height="17.58" id="el_ryIb706ew2Q"/><rect x="113.13" y="61.65" width="1.53" height="17.58" id="el_BJDWQCTeP3Q"/><rect x="100.9" y="61.65" width="1.53" height="17.58" id="el_H1uZQAagvh7"/><rect x="94.78" y="61.65" width="1.53" height="17.58" id="el_HyKbQC6lDnX"/><rect x="88.67" y="61.65" width="1.53" height="17.58" id="el_r19W70TgD3m"/><rect x="81.79" y="61.65" width="1.53" height="17.58" id="el_S1s-mAalv2m"/><rect x="74.91" y="61.65" width="1.53" height="17.58" id="el_rknW70pgDhm"/></g><g id="el_Hy6ZmATxD3X"><path d="M504.24,892.13V971a40.08,40.08,0,0,0,1.4,10.5h121.7a40.08,40.08,0,0,0,1.4-10.5V892.13Z" id="el_rJAZQA6xw27"/></g></svg>