<svg xmlns="http://www.w3.org/2000/svg" viewBox="0 0 404.3 305"><defs><style>.cls-1{fill:#ea1818;}</style></defs><title>caranimation</title><g id="Car_body" data-name="Car body"><polygon class="cls-1" points="341.72 88.87 341.72 0 102.22 0 102.22 88.87 0 88.87 0 235.32 404.3 235.32 404.3 88.87 341.72 88.87"/></g><g id="back_tire" data-name="back tire"><path d="M473.42,403.9A66.55,66.55,0,1,0,540,470.45,66.55,66.55,0,0,0,473.42,403.9Zm-3.55,58.7-10.23-10.23A22.62,22.62,0,0,1,469.88,448Zm-4.3,5.14H450.85A22.61,22.61,0,0,1,455,457.15Zm-11.9,14a22.58,22.58,0,0,1-2.63-7.29h12.25Zm16.21-3.91v15.12a22.66,22.66,0,0,1-12.08-6Zm11.81-3.38h14.12a22.63,22.63,0,0,1-4.3,9.82Zm5,14.47A22.61,22.61,0,0,1,476.55,493V478.72Zm-3.58-21.15,10.4-7.89a22.58,22.58,0,0,1,2.45,7.89Zm6.45-13.27-13,9.89V447.93A22.67,22.67,0,0,1,489.59,454.47Z" transform="translate(-389.35 -232)"/></g><g id="front_tire" data-name="front tire"><path d="M714.58,403.9a66.55,66.55,0,1,0,66.55,66.55A66.55,66.55,0,0,0,714.58,403.9ZM711,462.6,700.8,452.37A22.62,22.62,0,0,1,711,448Zm-4.3,5.14H692a22.61,22.61,0,0,1,4.13-10.59Zm-11.9,14a22.58,22.58,0,0,1-2.63-7.29h12.25ZM711,477.8v15.12A22.66,22.66,0,0,1,699,487Zm11.81-3.38H737a22.63,22.63,0,0,1-4.3,9.82Zm5,14.47A22.61,22.61,0,0,1,717.71,493V478.72Zm-3.58-21.15,10.4-7.89a22.58,22.58,0,0,1,2.45,7.89Zm6.45-13.27-13,9.89V447.93A22.67,22.67,0,0,1,730.76,454.47Z" transform="translate(-389.35 -232)"/></g></svg>