<svg xmlns="http://www.w3.org/2000/svg" viewBox="0 0 296 363" id="el_HJtIU4Mvhm"><style>@-webkit-keyframes el_r19LUEzPhm_Animation{0%{opacity: 1;}50%{opacity: 0;}75%{opacity: 1;}100%{opacity: 1;}}@keyframes el_r19LUEzPhm_Animation{0%{opacity: 1;}50%{opacity: 0;}75%{opacity: 1;}100%{opacity: 1;}}@-webkit-keyframes el_BJWl8UEfDn7_Animation{0%{opacity: 1;}25%{opacity: 0;}50%{opacity: 1;}75%{opacity: 0;}100%{opacity: 1;}}@keyframes el_BJWl8UEfDn7_Animation{0%{opacity: 1;}25%{opacity: 0;}50%{opacity: 1;}75%{opacity: 0;}100%{opacity: 1;}}#el_HJtIU4Mvhm *{-webkit-animation-duration: 2s;animation-duration: 2s;-webkit-animation-iteration-count: infinite;animation-iteration-count: infinite;-webkit-animation-timing-function: cubic-bezier(0, 0, 1, 1);animation-timing-function: cubic-bezier(0, 0, 1, 1);}#el_ryi8IEfw37{fill: #a1f7f7;-webkit-transform: translate(-487.08px, -617px);transform: translate(-487.08px, -617px);}#el_r13IINfDhQ{fill: #a1f7f7;-webkit-transform: translate(-602.31px, -513.04px) rotate(-10.66deg);transform: translate(-602.31px, -513.04px) rotate(-10.66deg);}#el_rkaIU4Gwn7{fill: #a1f7f7;-webkit-transform: translate(-593.94px, -498.48px) rotate(-10.66deg);transform: translate(-593.94px, -498.48px) rotate(-10.66deg);}#el_Hy08UNMw2m{fill: #a1f7f7;-webkit-transform: translate(-595.07px, -504.27px) rotate(-10.66deg);transform: translate(-595.07px, -504.27px) rotate(-10.66deg);}#el_H1klUL4MD2Q{fill: #a1f7f7;-webkit-transform: translate(-597.83px, -509.6px) rotate(-10.66deg);transform: translate(-597.83px, -509.6px) rotate(-10.66deg);}#el_BygxI8EGP27{fill: #a1f7f7;-webkit-transform: translate(-594.99px, -491.18px) rotate(-10.66deg);transform: translate(-594.99px, -491.18px) rotate(-10.66deg);}#el_SJzgLL4fwh7{fill: #a1f7f7;-webkit-transform: translate(-487.08px, -617px);transform: translate(-487.08px, -617px);}#el_HkXeL8VGDn7{fill: #a1f7f7;-webkit-transform: translate(-679.04px, 679.33px) rotate(-73.56deg);transform: translate(-679.04px, 679.33px) rotate(-73.56deg);}#el_HJ4lLI4Mw2m{fill: #a1f7f7;-webkit-transform: translate(-691.17px, 571.82px) rotate(-73.56deg);transform: translate(-691.17px, 571.82px) rotate(-73.56deg);}#el_B1rxUUNzwh7{fill: #a1f7f7;-webkit-transform: translate(-674.96px, 606.23px) rotate(-73.56deg);transform: translate(-674.96px, 606.23px) rotate(-73.56deg);}#el_rkUlLUNfw2X{fill: #a1f7f7;-webkit-transform: translate(-668.9px, 644.39px) rotate(-73.56deg);transform: translate(-668.9px, 644.39px) rotate(-73.56deg);}#el_HyvlLLVMw3X{fill: #a1f7f7;-webkit-transform: translate(-724.49px, 537.98px) rotate(-73.56deg);transform: translate(-724.49px, 537.98px) rotate(-73.56deg);}#el_BJWl8UEfDn7{-webkit-animation-name: el_BJWl8UEfDn7_Animation;animation-name: el_BJWl8UEfDn7_Animation;opacity: 1;}#el_r19LUEzPhm{-webkit-animation-name: el_r19LUEzPhm_Animation;animation-name: el_r19LUEzPhm_Animation;opacity: 1;}</style><defs/><title>footprints</title><g id="el_r19LUEzPhm" data-name="right foot"><path d="M546.68,653.46a53.54,53.54,0,0,0-40.35,60.38l-.09-.38c-3.64,8.55,5,43.91,3.75,54.54-2,17-7.54,25.92-2.84,38.23h0c-9.84,8.91-7.27,29.79-3.62,43.82a37.07,37.07,0,0,0,72.29-16.27c-1-5.2,1.76-1.4-.73-4.95-.16-.23-.42-.14-.27-.38,6.64-10.75-10.56-24.15-8.59-40.71.78-6.49,16.24-24.57,23.55-36.47a76.84,76.84,0,0,1,12.65-15.45c10-9.48,8.52-21.11,9-40.33C612.4,656.66,576.5,646.42,546.68,653.46Z" id="el_ryi8IEfw37"/><circle cx="499.29" cy="669.22" r="12.21" id="el_r13IINfDhQ"/><circle cx="581.47" cy="631.66" r="12.21" id="el_rkaIU4Gwn7"/><circle cx="549.87" cy="634.86" r="12.21" id="el_Hy08UNMw2m"/><circle cx="519.94" cy="646.93" r="12.21" id="el_H1klUL4MD2Q"/><circle cx="620.03" cy="640.97" r="23.96" id="el_BygxI8EGP27"/></g><g id="el_BJWl8UEfDn7" data-name="left foot"><path d="M725.58,756.11a53.54,53.54,0,0,1,34.06,64.14l.13-.37c2.76,8.87-9.42,43.18-9.22,53.88.31,17.07,4.89,26.54-1,38.32h0c8.89,9.86,4.23,30.37-.81,44a37.07,37.07,0,0,1-70.29-23.47c1.5-5.07-1.61-1.57,1.23-4.85.19-.22.43-.1.31-.36-5.53-11.36,12.94-23,12.64-39.64-.12-6.54-13.69-26.08-19.76-38.65a76.84,76.84,0,0,0-11-16.64c-9-10.44-6.35-21.86-4.89-41C659.87,752.68,696.63,746.1,725.58,756.11Z" id="el_SJzgLL4fwh7"/><circle cx="771.14" cy="776.57" r="12.21" id="el_HkXeL8VGDn7"/><circle cx="693.16" cy="730.92" r="12.21" id="el_HJ4lLI4Mw2m"/><circle cx="724.28" cy="737.28" r="12.21" id="el_B1rxUUNzwh7"/><circle cx="752.85" cy="752.31" r="12.21" id="el_rkUlLUNfw2X"/><circle cx="653.87" cy="736.3" r="23.96" id="el_HyvlLLVMw3X"/></g></svg>