<svg id="Layer_2" data-name="Layer 2" xmlns="http://www.w3.org/2000/svg" viewBox="0 0 841 553.63"><defs><style>.cls-1{fill:#f4f4a8;}.cls-1,.cls-2{stroke:#a1f7f7;stroke-miterlimit:10;}.cls-2{fill:#dab9ea;}.cls-3{fill:#93e0e2;}.cls-4{fill:#fff;}</style></defs><title>hangingtoys</title><g id="middle"><ellipse class="cls-1" cx="78.5" cy="81.5" rx="55.5" ry="39.5"/><polygon class="cls-2" points="93.67 103.11 78.58 95.3 63.58 103.3 66.35 86.53 54.11 74.74 70.91 72.19 78.34 56.91 85.96 72.1 102.79 74.44 90.69 86.38 93.67 103.11"/><polygon class="cls-3" points="694.67 380.11 679.58 372.3 664.58 380.3 667.35 363.53 655.11 351.74 671.91 349.19 679.34 333.91 686.96 349.1 703.79 351.44 691.69 363.38 694.67 380.11"/><polygon class="cls-2" points="601.67 496.11 586.58 488.3 571.58 496.3 574.35 479.53 562.11 467.74 578.91 465.19 586.34 449.91 593.96 465.1 610.79 467.44 598.69 479.38 601.67 496.11"/></g><path class="cls-1" d="M761.75,553.54c.47-2.91.87-5.84,1.25-8.78C737.16,507.6,692.38,483,641.43,483c-80,0-144.93,60.66-144.93,135.48,0,69.75,56.4,127.17,128.9,134.63.81-.5,1.64-1,2.44-1.49a138.65,138.65,0,0,1-9.78-51.2C618.05,623.4,681.21,560.21,761.75,553.54Z" transform="translate(-135 -200)"/><path d="M639.41,565.52a4.31,4.31,0,0,1-2.42-.67c-3.68-2.43-2.6-10.58,2.41-18.18,4-6,9.33-10,13.35-10a4.31,4.31,0,0,1,2.42.67c1.73,1.14,2.46,3.62,2.05,7a27,27,0,0,1-4.46,11.19c-4,6-9.33,10-13.34,10Z" transform="translate(-135 -200)"/><path d="M652.75,537.12a3.82,3.82,0,0,1,2.14.59c1.54,1,2.21,3.39,1.83,6.51a26.52,26.52,0,0,1-4.38,11c-3.81,5.78-9.13,9.82-12.93,9.82a3.82,3.82,0,0,1-2.14-.59c-1.54-1-2.21-3.39-1.83-6.51a26.52,26.52,0,0,1,4.38-11c3.81-5.78,9.13-9.82,12.93-9.82m0-1c-4.06,0-9.62,4-13.76,10.26-5.17,7.84-6.19,16.29-2.27,18.87a4.81,4.81,0,0,0,2.69.76c4.06,0,9.62-4,13.76-10.26,5.17-7.84,6.19-16.29,2.27-18.87a4.81,4.81,0,0,0-2.69-.76Z" transform="translate(-135 -200)"/><path d="M658.75,578.88a4.31,4.31,0,0,1-2.42-.67c-1.73-1.14-2.46-3.62-2.05-7A27,27,0,0,1,658.74,560c4-6,9.33-10,13.35-10a4.31,4.31,0,0,1,2.42.67c1.73,1.14,2.46,3.62,2.05,7a27,27,0,0,1-4.46,11.19c-4,6-9.33,10-13.35,10Z" transform="translate(-135 -200)"/><path d="M672.09,550.48a3.82,3.82,0,0,1,2.14.59c1.54,1,2.21,3.39,1.83,6.51a26.52,26.52,0,0,1-4.38,11c-3.81,5.78-9.13,9.82-12.93,9.82a3.82,3.82,0,0,1-2.14-.59c-1.54-1-2.21-3.39-1.83-6.51a26.52,26.52,0,0,1,4.38-11c3.81-5.78,9.13-9.82,12.93-9.82m0-1c-4.06,0-9.62,4-13.76,10.26-5.17,7.84-6.19,16.29-2.27,18.87a4.81,4.81,0,0,0,2.69.76c4.06,0,9.62-4,13.76-10.26,5.17-7.84,6.19-16.29,2.27-18.87a4.81,4.81,0,0,0-2.69-.76Z" transform="translate(-135 -200)"/><rect class="cls-4" y="42" width="147" height="103"/><rect x="493" y="20" width="4" height="263"/><rect x="584" y="187" width="4" height="263"/><rect x="681" y="71" width="4" height="263"/><rect class="cls-4" x="362" width="479" height="203"/></svg>