<svg xmlns="http://www.w3.org/2000/svg" viewBox="0 0 279 148" id="el_BJFvaBlw3Q"><style>@-webkit-keyframes el_ByeePprxDh7_ry9lLxw3m_Animation{0%{-webkit-transform: translate(84px, 29px) translate(-84px, -29px) translate(0px, 20px);transform: translate(84px, 29px) translate(-84px, -29px) translate(0px, 20px);}25%{-webkit-transform: translate(84px, 29px) translate(-84px, -29px) translate(0px, -20px);transform: translate(84px, 29px) translate(-84px, -29px) translate(0px, -20px);}50%{-webkit-transform: translate(84px, 29px) translate(-84px, -29px) translate(0px, 20px);transform: translate(84px, 29px) translate(-84px, -29px) translate(0px, 20px);}75%{-webkit-transform: translate(84px, 29px) translate(-84px, -29px) translate(0px, -20px);transform: translate(84px, 29px) translate(-84px, -29px) translate(0px, -20px);}100%{-webkit-transform: translate(84px, 29px) translate(-84px, -29px) translate(0px, 0px);transform: translate(84px, 29px) translate(-84px, -29px) translate(0px, 0px);}}@keyframes el_ByeePprxDh7_ry9lLxw3m_Animation{0%{-webkit-transform: translate(84px, 29px) translate(-84px, -29px) translate(0px, 20px);transform: translate(84px, 29px) translate(-84px, -29px) translate(0px, 20px);}25%{-webkit-transform: translate(84px, 29px) translate(-84px, -29px) translate(0px, -20px);transform: translate(84px, 29px) translate(-84px, -29px) translate(0px, -20px);}50%{-webkit-transform: translate(84px, 29px) translate(-84px, -29px) translate(0px, 20px);transform: translate(84px, 29px) translate(-84px, -29px) translate(0px, 20px);}75%{-webkit-transform: translate(84px, 29px) translate(-84px, -29px) translate(0px, -20px);transform: translate(84px, 29px) translate(-84px, -29px) translate(0px, -20px);}100%{-webkit-transform: translate(84px, 29px) translate(-84px, -29px) translate(0px, 0px);transform: translate(84px, 29px) translate(-84px, -29px) translate(0px, 0px);}}#el_BJFvaBlw3Q *{-webkit-animation-duration: 2s;animation-duration: 2s;-webkit-animation-iteration-count: infinite;animation-iteration-count: infinite;-webkit-animation-timing-function: cubic-bezier(0, 0, 1, 1);animation-timing-function: cubic-bezier(0, 0, 1, 1);}#el_r1sPpBxw2m{fill: #89dfe5;-webkit-transform: translate(-94px, -743px);transform: translate(-94px, -743px);}#el_SJhwprlDhQ{fill: #fff;}#el_HyawaSxv3Q{fill: #fff;}#el_H1AwaBgD2X{fill: #fff;}#el_By1eP6Hev37{fill: #fff;}#el_BkbxvaBxPhm{fill: #f4f4a8;}#el_ryMlvTBlv3Q{fill: #dab9ea;}#el_ByeePprxDh7_ry9lLxw3m{-webkit-animation-name: el_ByeePprxDh7_ry9lLxw3m_Animation;animation-name: el_ByeePprxDh7_ry9lLxw3m_Animation;}</style><defs/><title>pacifier</title><g id="el_B15vTHgwhm"><path d="M300.92,743c-39.81,0,0,73.5-72.08,73.5a8.73,8.73,0,0,0-2.21.26C170.48,809.14,203.56,744,166.08,744,126.27,744,94,776.91,94,817.5S126.27,891,166.08,891c23.44,0,52.65-25.47,67.78-46.43,15.32,20.76,44,45.43,67.06,45.43,39.81,0,72.08-32.91,72.08-73.5S340.73,743,300.92,743Z" id="el_r1sPpBxw2m"/><circle cx="57.5" cy="56.5" r="17.5" id="el_SJhwprlDhQ"/><circle cx="226.5" cy="56.5" r="17.5" id="el_HyawaSxv3Q"/><circle cx="180" cy="113" r="11" id="el_H1AwaBgD2X"/><circle cx="100" cy="113" r="11" id="el_By1eP6Hev37"/></g><g id="el_ByeePprxDh7_ry9lLxw3m" data-animator-group="true" data-animator-type="0"><g id="el_ByeePprxDh7"><ellipse cx="139.5" cy="68.5" rx="55.5" ry="39.5" id="el_BkbxvaBxPhm"/><polygon points="154.67 90.11 139.58 82.3 124.58 90.3 127.35 73.53 115.11 61.74 131.91 59.19 139.34 43.91 146.96 59.1 163.79 61.44 151.69 73.38 154.67 90.11" id="el_ryMlvTBlv3Q"/></g></g></svg>