<svg xmlns="http://www.w3.org/2000/svg" viewBox="0 0 141 363.8"><defs><style>.cls-1{fill:#e9ed4f;}.cls-2{fill:#89dfe5;}.cls-3{fill:#f4f4a8;}.cls-4{fill:#d6a9f7;}</style></defs><title>rattle</title><g id="yellow"><path class="cls-1" d="M627.82,827V719.21a64.5,64.5,0,1,0-22.63,0V827a64.5,64.5,0,1,0,22.63,0Zm-11,105.38a42.15,42.15,0,1,1,42.15-42.15A42.15,42.15,0,0,1,616.78,932.37Z" transform="translate(-546 -591.2)"/></g><g id="blue"><path class="cls-2" d="M627.82,827V719.21a64.5,64.5,0,1,0-22.63,0V827a64.5,64.5,0,1,0,22.63,0Zm-11,105.38a42.15,42.15,0,1,1,42.15-42.15A42.15,42.15,0,0,1,616.78,932.37Z" transform="translate(-546 -591.2)"/><path class="cls-3" d="M681.12,658c-10.88,3.53-35.71,6-64.62,6s-53.74-2.47-64.62-6c-3.78,1.23-5.88,2.58-5.88,4,0,5.52,31.56,10,70.5,10s70.5-4.48,70.5-10C687,660.58,684.89,659.23,681.12,658Z" transform="translate(-546 -591.2)"/><ellipse class="cls-4" cx="14.21" cy="55.26" rx="11.21" ry="11.46"/><ellipse class="cls-4" cx="36.62" cy="55.26" rx="11.21" ry="11.46"/><path class="cls-4" d="M627,635a11.27,11.27,0,0,0-11,9.13,11.46,11.46,0,1,0,0,4.66A11.24,11.24,0,1,0,627,635Z" transform="translate(-546 -591.2)"/><ellipse class="cls-4" cx="125.79" cy="55.26" rx="11.21" ry="11.46"/><ellipse class="cls-4" cx="103.38" cy="55.26" rx="11.21" ry="11.46"/></g></svg>