<svg id="Layer_2" data-name="Layer 2" xmlns="http://www.w3.org/2000/svg" viewBox="0 0 584.07 559.76"><defs><style>.cls-1{fill:#f4f4a8;}.cls-2{fill:#347df4;}.cls-3{fill:#fcce38;}</style></defs><title>rubberduck</title><path class="cls-1" d="M169.81,500.19c-2.65,1.53-5.23,3.16-7.81,4.81,1.28,55.79,32.65,124.22,88.85,182.23,88.28,91.13,204.27,122,259.07,68.89,51.09-49.49,30.94-154.44-43.55-242.28-1.26-.56-2.52-1.17-3.78-1.72-4.72,18.51-13.53,34.69-26.71,47.46C379.46,614.23,263.52,587.16,169.81,500.19Z" transform="translate(-162 -222.34)"/><circle class="cls-1" cx="277.66" cy="168.26" r="168.26"/><circle class="cls-1" cx="226.51" cy="159.01"/><ellipse class="cls-2" cx="394.15" cy="123.27" rx="16.02" ry="30.82"/><path class="cls-3" d="M745.93,426.48C748.67,445.69,710.8,467,661.36,474s-91.74-2.82-94.48-22,38-65.63,84.57-47.53C741.05,439.29,743.2,407.28,745.93,426.48Z" transform="translate(-162 -222.34)"/></svg>