<svg xmlns="http://www.w3.org/2000/svg" viewBox="0 0 382 409" id="el_BJEGL-zDnX"><style>@-webkit-keyframes el_ByIeGIbMvn7_rJ2vbMw3Q_Animation{0%{-webkit-transform: translate(57.8800048828125px, 350.8800048828125px) rotate(360deg) translate(-57.8800048828125px, -350.8800048828125px);transform: translate(57.8800048828125px, 350.8800048828125px) rotate(360deg) translate(-57.8800048828125px, -350.8800048828125px);}100%{-webkit-transform: translate(57.8800048828125px, 350.8800048828125px) rotate(720deg) translate(-57.8800048828125px, -350.8800048828125px);transform: translate(57.8800048828125px, 350.8800048828125px) rotate(720deg) translate(-57.8800048828125px, -350.8800048828125px);}}@keyframes el_ByIeGIbMvn7_rJ2vbMw3Q_Animation{0%{-webkit-transform: translate(57.8800048828125px, 350.8800048828125px) rotate(360deg) translate(-57.8800048828125px, -350.8800048828125px);transform: translate(57.8800048828125px, 350.8800048828125px) rotate(360deg) translate(-57.8800048828125px, -350.8800048828125px);}100%{-webkit-transform: translate(57.8800048828125px, 350.8800048828125px) rotate(720deg) translate(-57.8800048828125px, -350.8800048828125px);transform: translate(57.8800048828125px, 350.8800048828125px) rotate(720deg) translate(-57.8800048828125px, -350.8800048828125px);}}@-webkit-keyframes el_rJ7lf8Zfwn7_SkicZfwhX_Animation{0%{-webkit-transform: translate(324.12005615234375px, 351.6099853515625px) rotate(360deg) translate(-324.12005615234375px, -351.6099853515625px);transform: translate(324.12005615234375px, 351.6099853515625px) rotate(360deg) translate(-324.12005615234375px, -351.6099853515625px);}100%{-webkit-transform: translate(324.12005615234375px, 351.6099853515625px) rotate(720deg) translate(-324.12005615234375px, -351.6099853515625px);transform: translate(324.12005615234375px, 351.6099853515625px) rotate(720deg) translate(-324.12005615234375px, -351.6099853515625px);}}@keyframes el_rJ7lf8Zfwn7_SkicZfwhX_Animation{0%{-webkit-transform: translate(324.12005615234375px, 351.6099853515625px) rotate(360deg) translate(-324.12005615234375px, -351.6099853515625px);transform: translate(324.12005615234375px, 351.6099853515625px) rotate(360deg) translate(-324.12005615234375px, -351.6099853515625px);}100%{-webkit-transform: translate(324.12005615234375px, 351.6099853515625px) rotate(720deg) translate(-324.12005615234375px, -351.6099853515625px);transform: translate(324.12005615234375px, 351.6099853515625px) rotate(720deg) translate(-324.12005615234375px, -351.6099853515625px);}}#el_BJEGL-zDnX *{-webkit-animation-duration: 2s;animation-duration: 2s;-webkit-animation-iteration-count: infinite;animation-iteration-count: infinite;-webkit-animation-timing-function: cubic-bezier(0, 0, 1, 1);animation-timing-function: cubic-bezier(0, 0, 1, 1);}#el_H18MIbGD2m{fill: #a1f7f7;-webkit-transform: translate(-478px, -404px);transform: translate(-478px, -404px);}#el_BkPGIWfP3X{fill: #a1f7f7;-webkit-transform: translate(-478px, -404px);transform: translate(-478px, -404px);}#el_HkufLZMD2X{fill: #a1f7f7;-webkit-transform: translate(-478px, -404px);transform: translate(-478px, -404px);}#el_rytfIZfP27{fill: #f4f4a8;-webkit-transform: translate(-478px, -404px);transform: translate(-478px, -404px);}#el_HJ9GL-zDn7{fill: #f4f4a8;-webkit-transform: translate(-478px, -404px);transform: translate(-478px, -404px);}#el_BJsz8bMw2X{fill: #f4f4a8;-webkit-transform: translate(-478px, -404px);transform: translate(-478px, -404px);}#el_HkhfLZfP3Q{fill: #dab9ea;-webkit-transform: translate(-535.89px, 441.19px) rotate(-60deg);transform: translate(-535.89px, 441.19px) rotate(-60deg);}#el_rkTzIZzPhm{fill: #dab9ea;}#el_ByRfUbGP3m{fill: #dab9ea;}#el_Hk1xfLZfD2Q{fill: #dab9ea;-webkit-transform: translate(-629.79px, 28.53px) rotate(-30deg);transform: translate(-629.79px, 28.53px) rotate(-30deg);}#el_HylgGLZfPhQ{fill: #dab9ea;}#el_rJWefIWzD2X{fill: #f4f4a8;-webkit-transform: translate(-478px, -404px);transform: translate(-478px, -404px);}#el_r1zxMUWGDnm{fill: #dab9ea;}#el_H1EgzUbMD2X{-webkit-transform: translate(-478px, -404px);transform: translate(-478px, -404px);}#el_Byrlf8WGv3m{fill: #fff;-webkit-transform: translate(-478px, -404px);transform: translate(-478px, -404px);}#el_ByDlG8-zw37{-webkit-transform: translate(-478px, -404px);transform: translate(-478px, -404px);}#el_BJOlfIWGw27{fill: #fff;-webkit-transform: translate(-478px, -404px);transform: translate(-478px, -404px);}#el_rJ7lf8Zfwn7_SkicZfwhX{-webkit-animation-name: el_rJ7lf8Zfwn7_SkicZfwhX_Animation;animation-name: el_rJ7lf8Zfwn7_SkicZfwhX_Animation;-webkit-transform: translate(324.12005615234375px, 351.6099853515625px) rotate(360deg) translate(-324.12005615234375px, -351.6099853515625px);transform: translate(324.12005615234375px, 351.6099853515625px) rotate(360deg) translate(-324.12005615234375px, -351.6099853515625px);}#el_ByIeGIbMvn7_rJ2vbMw3Q{-webkit-animation-name: el_ByIeGIbMvn7_rJ2vbMw3Q_Animation;animation-name: el_ByIeGIbMvn7_rJ2vbMw3Q_Animation;-webkit-transform: translate(57.8800048828125px, 350.8800048828125px) rotate(360deg) translate(-57.8800048828125px, -350.8800048828125px);transform: translate(57.8800048828125px, 350.8800048828125px) rotate(360deg) translate(-57.8800048828125px, -350.8800048828125px);}</style><defs/><title>stroller</title><g id="el_SJHGL-fw3X" data-name="stroller body"><path d="M682.38,650c-1.28,0-2.54,0-3.79-.13l-23.9,22.23a148.14,148.14,0,0,0,54.75-11.28l-10.56-13.34A54,54,0,0,1,682.38,650Z" id="el_H18MIbGD2m"/><path d="M682.38,592.83c22.18,0,40.15,12.79,40.15,28.58a22.92,22.92,0,0,1-6.29,15.35l11.68,14.75c39.8-23.74,66.24-65.67,66.24-113.45,0-74-63.49-134.06-141.8-134.06V537.84H637.92l43.55,55ZM787.65,535H671.17v-5.79H787.65Zm-22.17-58.58,2.89,5L697,522.63l-2.89-5Zm-44.37-40.8,5,2.89-41.24,71.43-5-2.89ZM665.38,412h5.79V528.44h-5.79Z" id="el_BkPGIWfP3X"/><path d="M642.23,621.41c0-9.76,6.88-18.38,17.38-23.53l-47.53-60H510.56c0,.07,0,.14,0,.21,0,66,50.44,120.85,116.86,132l28.92-26.9C647.71,637.91,642.23,630.11,642.23,621.41ZM607.5,548.7H525v-5.79H607.5Z" id="el_HkufLZMD2X"/><path d="M681.47,592.85l-43.55-55L538,411.68l-15.89,12.58,89.94,113.59,47.53,60A51.69,51.69,0,0,1,681.47,592.85Z" id="el_rytfIZfP27"/><path d="M716.24,636.76a39.42,39.42,0,0,1-17.37,10.7l10.56,13.34,63.67,80.4L789,728.63l-61.07-77.12Z" id="el_HJ9GL-zDn7"/><path d="M656.34,643.15,627.42,670l-59,54.88,13.67,14.69,72.61-67.53,23.9-22.23A49.4,49.4,0,0,1,656.34,643.15Z" id="el_BJsz8bMw2X"/><rect x="661.77" y="469.84" width="82.48" height="5.79" id="el_HkhfLZfP3Q"/><rect x="187.38" y="7.96" width="5.79" height="116.48" id="el_rkTzIZzPhm"/><rect x="193.17" y="125.16" width="116.48" height="5.79" id="el_ByRfUbGP3m"/><rect x="689.98" y="496.61" width="82.48" height="5.79" id="el_Hk1xfLZfD2Q"/><rect x="47.03" y="138.91" width="82.48" height="5.79" id="el_HylgGLZfPhQ"/><path d="M682.38,592.83l-.91,0a51.69,51.69,0,0,0-21.86,5c-10.49,5.16-17.38,13.77-17.38,23.53,0,8.71,5.48,16.5,14.11,21.74a49.4,49.4,0,0,0,22.25,6.71c1.25.08,2.51.13,3.79.13a54,54,0,0,0,16.49-2.52,39.42,39.42,0,0,0,17.37-10.7,22.92,22.92,0,0,0,6.29-15.35C722.54,605.62,704.56,592.83,682.38,592.83Zm11,44.21-10.92-5.65-10.85,5.79,2-12.13-8.86-8.53,12.15-1.84,5.38-11.05,5.51,11L700,616.3l-8.75,8.64Z" id="el_rJWefIWzD2X"/><polygon points="209.78 210.61 204.27 199.62 198.89 210.67 186.74 212.52 195.59 221.05 193.59 233.18 204.44 227.39 215.36 233.04 213.2 220.94 221.96 212.3 209.78 210.61" id="el_r1zxMUWGDnm"/></g><g id="el_rJ7lf8Zfwn7_SkicZfwhX" data-animator-group="true" data-animator-type="1"><g id="el_rJ7lf8Zfwn7" data-name="front wheel"><path d="M802.12,697.73A57.88,57.88,0,1,0,860,755.61,57.88,57.88,0,0,0,802.12,697.73ZM818.66,760a16.89,16.89,0,0,1-2.06,6.48l24.75,25.19-4.64,4.56-24.33-24.77a16.92,16.92,0,0,1-7.36,3.41v34.32H798.5V774.83a16.92,16.92,0,0,1-7-3.16l-24.85,24.41-4.56-4.64,25.07-24.63a16.89,16.89,0,0,1-2.27-6.85H748.58v-6.51h36.84a17,17,0,0,1,3.25-6.15l-26.5-27,4.64-4.56,26.92,27.4a16.88,16.88,0,0,1,4.77-1.7V702.8H805v38.66a16.89,16.89,0,0,1,5.66,2.21l27.24-26.77,4.56,4.64-27,26.54a16.93,16.93,0,0,1,2.63,5.35h36.84V760Z" id="el_H1EgzUbMD2X"/><path d="M818.1,753.44a16.93,16.93,0,0,0-2.63-5.35l27-26.54-4.56-4.64-27.24,26.77a16.89,16.89,0,0,0-5.66-2.21V702.8H798.5v38.66a16.88,16.88,0,0,0-4.77,1.7l-26.92-27.4-4.64,4.56,26.5,27a17,17,0,0,0-3.25,6.15H748.58V760h36.27a16.89,16.89,0,0,0,2.27,6.85l-25.07,24.63,4.56,4.64,24.85-24.41a16.92,16.92,0,0,0,7,3.16v34.32H805V774.83a16.92,16.92,0,0,0,7.36-3.41l24.33,24.77,4.64-4.56L816.6,766.44a16.89,16.89,0,0,0,2.06-6.48h36.27v-6.51Z" id="el_Byrlf8WGv3m"/></g></g><g id="el_ByIeGIbMvn7_rJ2vbMw3Q" data-animator-group="true" data-animator-type="1"><g id="el_ByIeGIbMvn7" data-name="back wheel"><path d="M535.88,697a57.88,57.88,0,1,0,57.88,57.88A57.88,57.88,0,0,0,535.88,697Zm16.54,62.22a16.89,16.89,0,0,1-2.06,6.48l24.75,25.19-4.64,4.56L546.13,770.7a16.92,16.92,0,0,1-7.36,3.41v34.32h-6.51V774.11a16.92,16.92,0,0,1-7-3.16l-24.85,24.41-4.56-4.64,25.07-24.63a16.89,16.89,0,0,1-2.27-6.85H482.34v-6.51h36.84a17,17,0,0,1,3.25-6.15l-26.5-27,4.64-4.56,26.92,27.4a16.88,16.88,0,0,1,4.77-1.7V702.08h6.51v38.66a16.89,16.89,0,0,1,5.66,2.21l27.24-26.77,4.56,4.64-27,26.54a16.93,16.93,0,0,1,2.63,5.35h36.84v6.51Z" id="el_ByDlG8-zw37"/><path d="M551.85,752.72a16.93,16.93,0,0,0-2.63-5.35l27-26.54-4.56-4.64-27.24,26.77a16.89,16.89,0,0,0-5.66-2.21V702.08h-6.51v38.66a16.88,16.88,0,0,0-4.77,1.7L500.57,715l-4.64,4.56,26.5,27a17,17,0,0,0-3.25,6.15H482.34v6.51h36.27a16.89,16.89,0,0,0,2.27,6.85l-25.07,24.63,4.56,4.64,24.85-24.41a16.92,16.92,0,0,0,7,3.16v34.32h6.51V774.11a16.92,16.92,0,0,0,7.36-3.41l24.33,24.77,4.64-4.56-24.75-25.19a16.89,16.89,0,0,0,2.06-6.48h36.27v-6.51Z" id="el_BJOlfIWGw27"/></g></g></svg>